<svg width="482" height="260" viewBox="0 0 482 260" fill="none" xmlns="http://www.w3.org/2000/svg">
<rect x="1" y="1" width="480" height="258" rx="6" fill="#151514"/>
<rect x="0.5" y="0.5" width="481" height="259" rx="6.5" stroke="#363636" stroke-opacity="0.4"/>
<g clip-path="url(#clip0_1_6)">
<path d="M10.376 25V13.64H14.456C15.8213 13.64 16.8507 13.8853 17.544 14.376C18.2373 14.8667 18.584 15.6453 18.584 16.712C18.584 17.192 18.4827 17.6133 18.28 17.976C18.0773 18.3387 17.7787 18.6267 17.384 18.84C17 19.0427 16.5413 19.1493 16.008 19.16L15.992 19.096C16.9627 19.1173 17.7147 19.384 18.248 19.896C18.792 20.3973 19.064 21.0587 19.064 21.88C19.064 22.9147 18.7173 23.6933 18.024 24.216C17.3307 24.7387 16.344 25 15.064 25H10.376ZM12.104 23.448H15.016C15.7307 23.448 16.2853 23.304 16.68 23.016C17.0853 22.7173 17.288 22.2853 17.288 21.72C17.288 21.1653 17.0853 20.7333 16.68 20.424C16.2853 20.1147 15.7307 19.96 15.016 19.96H12.104V23.448ZM12.104 18.488H14.424C15.1813 18.488 15.768 18.344 16.184 18.056C16.6 17.768 16.808 17.3627 16.808 16.84C16.808 16.2853 16.6053 15.8747 16.2 15.608C15.8053 15.3307 15.2133 15.192 14.424 15.192H12.104V18.488ZM24.6571 25.192C23.8465 25.192 23.1371 25.0107 22.5291 24.648C21.9211 24.2853 21.4518 23.768 21.1211 23.096C20.7905 22.424 20.6251 21.64 20.6251 20.744C20.6251 19.8373 20.7905 19.0533 21.1211 18.392C21.4518 17.7307 21.9211 17.2187 22.5291 16.856C23.1371 16.4827 23.8465 16.296 24.6571 16.296C25.4678 16.296 26.1771 16.4827 26.7851 16.856C27.3931 17.2187 27.8625 17.7307 28.1931 18.392C28.5238 19.0533 28.6891 19.8373 28.6891 20.744C28.6891 21.64 28.5238 22.424 28.1931 23.096C27.8625 23.768 27.3931 24.2853 26.7851 24.648C26.1771 25.0107 25.4678 25.192 24.6571 25.192ZM24.6571 23.72C25.3825 23.72 25.9425 23.4587 26.3371 22.936C26.7318 22.4027 26.9291 21.672 26.9291 20.744C26.9291 19.816 26.7318 19.0907 26.3371 18.568C25.9425 18.0347 25.3825 17.768 24.6571 17.768C23.9425 17.768 23.3825 18.0347 22.9771 18.568C22.5825 19.0907 22.3851 19.816 22.3851 20.744C22.3851 21.672 22.5825 22.4027 22.9771 22.936C23.3825 23.4587 23.9425 23.72 24.6571 23.72ZM33.9071 25.192C33.0965 25.192 32.3871 25.0107 31.7791 24.648C31.1711 24.2853 30.7018 23.768 30.3711 23.096C30.0405 22.424 29.8751 21.64 29.8751 20.744C29.8751 19.8373 30.0405 19.0533 30.3711 18.392C30.7018 17.7307 31.1711 17.2187 31.7791 16.856C32.3871 16.4827 33.0965 16.296 33.9071 16.296C34.7178 16.296 35.4271 16.4827 36.0351 16.856C36.6431 17.2187 37.1125 17.7307 37.4431 18.392C37.7738 19.0533 37.9391 19.8373 37.9391 20.744C37.9391 21.64 37.7738 22.424 37.4431 23.096C37.1125 23.768 36.6431 24.2853 36.0351 24.648C35.4271 25.0107 34.7178 25.192 33.9071 25.192ZM33.9071 23.72C34.6325 23.72 35.1925 23.4587 35.5871 22.936C35.9818 22.4027 36.1791 21.672 36.1791 20.744C36.1791 19.816 35.9818 19.0907 35.5871 18.568C35.1925 18.0347 34.6325 17.768 33.9071 17.768C33.1925 17.768 32.6325 18.0347 32.2271 18.568C31.8325 19.0907 31.6351 19.816 31.6351 20.744C31.6351 21.672 31.8325 22.4027 32.2271 22.936C32.6325 23.4587 33.1925 23.72 33.9071 23.72ZM39.6531 25V13.64H41.3491V20.696L45.1731 16.488H47.3171L43.9891 20.072L47.4451 25H45.4931L42.8531 21.128L41.3491 22.728V25H39.6531ZM48.7313 25V16.488H50.2833L50.3313 18.6L50.1393 18.536C50.2353 18.0667 50.4006 17.6667 50.6353 17.336C50.8806 17.0053 51.1793 16.7493 51.5312 16.568C51.8833 16.3867 52.2673 16.296 52.6833 16.296C53.4086 16.296 54.0006 16.504 54.4593 16.92C54.9179 17.3253 55.2059 17.8853 55.3233 18.6H55.0513C55.1473 18.0987 55.3073 17.6827 55.5312 17.352C55.7659 17.0107 56.0646 16.7493 56.4273 16.568C56.7899 16.3867 57.2006 16.296 57.6593 16.296C58.2566 16.296 58.7633 16.424 59.1793 16.68C59.6059 16.9253 59.9259 17.288 60.1393 17.768C60.3633 18.248 60.4753 18.8347 60.4753 19.528V25H58.7793V19.944C58.7793 19.208 58.6459 18.6533 58.3793 18.28C58.1126 17.9067 57.7073 17.72 57.1633 17.72C56.8113 17.72 56.5019 17.8107 56.2353 17.992C55.9686 18.1733 55.7606 18.4347 55.6112 18.776C55.4726 19.1173 55.4033 19.528 55.4033 20.008V25H53.7873V20.008C53.7873 19.2827 53.6646 18.7227 53.4193 18.328C53.1846 17.9227 52.7793 17.72 52.2033 17.72C51.8406 17.72 51.5259 17.8107 51.2593 17.992C51.0033 18.1733 50.8006 18.44 50.6513 18.792C50.5019 19.1333 50.4273 19.5387 50.4273 20.008V25H48.7313ZM65.0996 25.192C64.2143 25.192 63.505 24.9893 62.9716 24.584C62.449 24.1787 62.1876 23.608 62.1876 22.872C62.1876 22.136 62.4063 21.5653 62.8436 21.16C63.2916 20.744 63.9796 20.4453 64.9076 20.264L67.8356 19.704C67.8356 19.0427 67.681 18.552 67.3716 18.232C67.0623 17.9013 66.6036 17.736 65.9956 17.736C65.4516 17.736 65.025 17.8587 64.7156 18.104C64.4063 18.3387 64.193 18.6907 64.0756 19.16L62.3316 19.048C62.4916 18.1947 62.8863 17.5227 63.5156 17.032C64.1556 16.5413 64.9823 16.296 65.9956 16.296C67.1476 16.296 68.0223 16.6053 68.6196 17.224C69.2276 17.832 69.5316 18.6907 69.5316 19.8V23.112C69.5316 23.3147 69.5636 23.4587 69.6276 23.544C69.7023 23.6187 69.8196 23.656 69.9796 23.656H70.2836V25C70.2303 25.0107 70.145 25.0213 70.0276 25.032C69.9103 25.0427 69.7876 25.048 69.6596 25.048C69.297 25.048 68.9823 24.9893 68.7156 24.872C68.4596 24.7547 68.2676 24.5627 68.1396 24.296C68.0116 24.0187 67.9476 23.6507 67.9476 23.192L68.1236 23.272C68.0383 23.6453 67.8516 23.976 67.5636 24.264C67.2863 24.552 66.929 24.7813 66.4916 24.952C66.065 25.112 65.601 25.192 65.0996 25.192ZM65.3716 23.848C65.8836 23.848 66.321 23.752 66.6836 23.56C67.0463 23.3573 67.329 23.08 67.5316 22.728C67.7343 22.376 67.8356 21.976 67.8356 21.528V20.984L65.3396 21.464C64.8276 21.56 64.465 21.7147 64.2516 21.928C64.049 22.1307 63.9476 22.392 63.9476 22.712C63.9476 23.0747 64.0703 23.3573 64.3156 23.56C64.5716 23.752 64.9236 23.848 65.3716 23.848ZM71.7156 25V16.488H73.2676L73.3316 18.744L73.1876 18.696C73.305 17.928 73.5396 17.368 73.8916 17.016C74.2543 16.664 74.7396 16.488 75.3476 16.488H76.1636V18.008H75.3476C74.921 18.008 74.5636 18.0773 74.2756 18.216C73.9876 18.3547 73.769 18.568 73.6196 18.856C73.481 19.144 73.4116 19.5173 73.4116 19.976V25H71.7156ZM77.5594 25V13.64H79.2554V20.696L83.0794 16.488H85.2234L81.8954 20.072L85.3514 25H83.3994L80.7594 21.128L79.2554 22.728V25H77.5594ZM89.6831 25.192C88.8831 25.192 88.2058 25.0693 87.6511 24.824C87.1071 24.5787 86.6858 24.2427 86.3871 23.816C86.0885 23.3787 85.9178 22.8773 85.8751 22.312L87.6191 22.232C87.7045 22.7013 87.9071 23.0747 88.2271 23.352C88.5471 23.6293 89.0325 23.768 89.6831 23.768C90.2165 23.768 90.6378 23.6827 90.9471 23.512C91.2565 23.3413 91.4111 23.0693 91.4111 22.696C91.4111 22.4933 91.3578 22.3227 91.2511 22.184C91.1551 22.0347 90.9631 21.912 90.6751 21.816C90.3871 21.7093 89.9605 21.608 89.3951 21.512C88.5525 21.352 87.8911 21.1653 87.4111 20.952C86.9311 20.7387 86.5898 20.4667 86.3871 20.136C86.1845 19.8053 86.0831 19.4053 86.0831 18.936C86.0831 18.1573 86.3711 17.5227 86.9471 17.032C87.5338 16.5413 88.3765 16.296 89.4751 16.296C90.2111 16.296 90.8298 16.424 91.3311 16.68C91.8325 16.9253 92.2218 17.2613 92.4991 17.688C92.7871 18.104 92.9685 18.5733 93.0431 19.096L91.2991 19.192C91.2458 18.8933 91.1391 18.6373 90.9791 18.424C90.8298 18.2 90.6271 18.0293 90.3711 17.912C90.1151 17.784 89.8111 17.72 89.4591 17.72C88.9151 17.72 88.5098 17.8267 88.2431 18.04C87.9765 18.2533 87.8431 18.5307 87.8431 18.872C87.8431 19.128 87.9018 19.336 88.0191 19.496C88.1471 19.656 88.3498 19.7893 88.6271 19.896C88.9045 19.992 89.2725 20.0773 89.7311 20.152C90.6165 20.3013 91.3098 20.488 91.8111 20.712C92.3125 20.9253 92.6645 21.192 92.8671 21.512C93.0698 21.832 93.1711 22.2213 93.1711 22.68C93.1711 23.2133 93.0218 23.6667 92.7231 24.04C92.4245 24.4133 92.0138 24.7013 91.4911 24.904C90.9685 25.096 90.3658 25.192 89.6831 25.192Z" fill="#EDEDED"/>
<path d="M452.333 21H461.667" stroke="#BDBDBD" stroke-opacity="0.858824" stroke-width="2" stroke-linecap="round" stroke-linejoin="round"/>
<path d="M457 16.3333V25.6667" stroke="#BDBDBD" stroke-opacity="0.858824" stroke-width="2" stroke-linecap="round" stroke-linejoin="round"/>
</g>
<rect x="9" y="41" width="464" height="40" rx="6" fill="#10100F"/>
<g clip-path="url(#clip1_1_6)">
<g clip-path="url(#clip2_1_6)">
<path d="M36.9207 56.8739C36.7392 56.1359 36.2063 55.556 35.5283 55.3584C34.3005 55 29.375 55 29.375 55C29.375 55 24.4496 55 23.2218 55.3584C22.5437 55.556 22.0108 56.1359 21.8293 56.8739C21.5 58.2103 21.5 61 21.5 61C21.5 61 21.5 63.7898 21.8293 65.1261C22.0108 65.8641 22.5437 66.444 23.2218 66.6416C24.4496 67 29.375 67 29.375 67C29.375 67 34.3005 67 35.5283 66.6416C36.2063 66.444 36.7392 65.8641 36.9207 65.1261C37.2501 63.7898 37.2501 61 37.2501 61C37.2501 61 37.2487 58.2103 36.9207 56.8739Z" fill="#FF0000"/>
<path d="M27.7985 63.5712L31.8903 61.0002L27.7985 58.4292V63.5712Z" fill="white"/>
</g>
</g>
<rect x="17" y="49" width="24" height="24" rx="6" fill="white" fill-opacity="0.1"/>
<path d="M54.616 66.5L51.608 55.14H53.448L55.656 64.116L57.864 55.14H59.624L61.832 64.116L64.024 55.14H65.896L62.872 66.5H60.856L58.744 58.212L56.632 66.5H54.616ZM69.2715 66.692C68.3862 66.692 67.6768 66.4893 67.1435 66.084C66.6208 65.6787 66.3595 65.108 66.3595 64.372C66.3595 63.636 66.5782 63.0653 67.0155 62.66C67.4635 62.244 68.1515 61.9453 69.0795 61.764L72.0075 61.204C72.0075 60.5427 71.8528 60.052 71.5435 59.732C71.2342 59.4013 70.7755 59.236 70.1675 59.236C69.6235 59.236 69.1968 59.3587 68.8875 59.604C68.5782 59.8387 68.3648 60.1907 68.2475 60.66L66.5035 60.548C66.6635 59.6947 67.0582 59.0227 67.6875 58.532C68.3275 58.0413 69.1542 57.796 70.1675 57.796C71.3195 57.796 72.1942 58.1053 72.7915 58.724C73.3995 59.332 73.7035 60.1907 73.7035 61.3V64.612C73.7035 64.8147 73.7355 64.9587 73.7995 65.044C73.8742 65.1187 73.9915 65.156 74.1515 65.156H74.4555V66.5C74.4022 66.5107 74.3168 66.5213 74.1995 66.532C74.0822 66.5427 73.9595 66.548 73.8315 66.548C73.4688 66.548 73.1542 66.4893 72.8875 66.372C72.6315 66.2547 72.4395 66.0627 72.3115 65.796C72.1835 65.5187 72.1195 65.1507 72.1195 64.692L72.2955 64.772C72.2102 65.1453 72.0235 65.476 71.7355 65.764C71.4582 66.052 71.1008 66.2813 70.6635 66.452C70.2368 66.612 69.7728 66.692 69.2715 66.692ZM69.5435 65.348C70.0555 65.348 70.4928 65.252 70.8555 65.06C71.2182 64.8573 71.5008 64.58 71.7035 64.228C71.9062 63.876 72.0075 63.476 72.0075 63.028V62.484L69.5115 62.964C68.9995 63.06 68.6368 63.2147 68.4235 63.428C68.2208 63.6307 68.1195 63.892 68.1195 64.212C68.1195 64.5747 68.2422 64.8573 68.4875 65.06C68.7435 65.252 69.0955 65.348 69.5435 65.348ZM78.714 66.5C77.9033 66.5 77.306 66.3133 76.922 65.94C76.538 65.5667 76.346 64.9853 76.346 64.196V55.988H78.042V64.068C78.042 64.4627 78.1273 64.7347 78.298 64.884C78.4687 65.0333 78.73 65.108 79.082 65.108H80.298V66.5H78.714ZM75.05 59.38V57.988H80.298V59.38H75.05ZM85.2821 66.692C84.4715 66.692 83.7621 66.5107 83.1541 66.148C82.5461 65.7853 82.0768 65.268 81.7461 64.596C81.4155 63.924 81.2501 63.14 81.2501 62.244C81.2501 61.348 81.4155 60.5693 81.7461 59.908C82.0768 59.236 82.5461 58.7187 83.1541 58.356C83.7621 57.9827 84.4715 57.796 85.2821 57.796C85.9755 57.796 86.5888 57.9187 87.1221 58.164C87.6661 58.3987 88.1035 58.7453 88.4341 59.204C88.7755 59.6627 88.9941 60.2227 89.0901 60.884L87.3141 60.98C87.2288 60.4253 87.0048 60.004 86.6421 59.716C86.2795 59.4173 85.8261 59.268 85.2821 59.268C84.5675 59.268 84.0075 59.5347 83.6021 60.068C83.2075 60.5907 83.0101 61.316 83.0101 62.244C83.0101 63.172 83.2075 63.9027 83.6021 64.436C84.0075 64.9587 84.5675 65.22 85.2821 65.22C85.8261 65.22 86.2795 65.0707 86.6421 64.772C87.0048 64.4627 87.2288 63.9987 87.3141 63.38L89.0901 63.476C88.9941 64.1267 88.7755 64.692 88.4341 65.172C88.1035 65.652 87.6661 66.0253 87.1221 66.292C86.5888 66.5587 85.9755 66.692 85.2821 66.692ZM90.6375 66.5V55.14H92.3335V59.908L92.1255 59.876C92.2215 59.396 92.3975 59.0067 92.6535 58.708C92.9095 58.3987 93.2242 58.1693 93.5975 58.02C93.9708 57.8707 94.3815 57.796 94.8295 57.796C95.4482 57.796 95.9708 57.9347 96.3975 58.212C96.8242 58.4787 97.1442 58.8573 97.3575 59.348C97.5815 59.8387 97.6935 60.3987 97.6935 61.028V66.5H95.9975V61.476C95.9975 60.708 95.8642 60.1427 95.5975 59.78C95.3415 59.4067 94.9362 59.22 94.3815 59.22C93.7628 59.22 93.2668 59.4173 92.8935 59.812C92.5202 60.196 92.3335 60.7613 92.3335 61.508V66.5H90.6375ZM101.744 66.5C101.189 66.5 100.741 66.356 100.4 66.068C100.058 65.78 99.8875 65.3213 99.8875 64.692V55.14H101.584V64.532C101.584 64.724 101.632 64.868 101.728 64.964C101.834 65.06 101.984 65.108 102.176 65.108H102.848V66.5H101.744ZM104.278 66.5V57.988H105.974V66.5H104.278ZM104.246 56.756V55.06H106.006V56.756H104.246ZM111.496 66.692C110.696 66.692 110.018 66.5693 109.464 66.324C108.92 66.0787 108.498 65.7427 108.2 65.316C107.901 64.8787 107.73 64.3773 107.688 63.812L109.432 63.732C109.517 64.2013 109.72 64.5747 110.04 64.852C110.36 65.1293 110.845 65.268 111.496 65.268C112.029 65.268 112.45 65.1827 112.76 65.012C113.069 64.8413 113.224 64.5693 113.224 64.196C113.224 63.9933 113.17 63.8227 113.064 63.684C112.968 63.5347 112.776 63.412 112.488 63.316C112.2 63.2093 111.773 63.108 111.208 63.012C110.365 62.852 109.704 62.6653 109.224 62.452C108.744 62.2387 108.402 61.9667 108.2 61.636C107.997 61.3053 107.896 60.9053 107.896 60.436C107.896 59.6573 108.184 59.0227 108.76 58.532C109.346 58.0413 110.189 57.796 111.288 57.796C112.024 57.796 112.642 57.924 113.144 58.18C113.645 58.4253 114.034 58.7613 114.312 59.188C114.6 59.604 114.781 60.0733 114.856 60.596L113.112 60.692C113.058 60.3933 112.952 60.1373 112.792 59.924C112.642 59.7 112.44 59.5293 112.184 59.412C111.928 59.284 111.624 59.22 111.272 59.22C110.728 59.22 110.322 59.3267 110.056 59.54C109.789 59.7533 109.656 60.0307 109.656 60.372C109.656 60.628 109.714 60.836 109.832 60.996C109.96 61.156 110.162 61.2893 110.44 61.396C110.717 61.492 111.085 61.5773 111.544 61.652C112.429 61.8013 113.122 61.988 113.624 62.212C114.125 62.4253 114.477 62.692 114.68 63.012C114.882 63.332 114.984 63.7213 114.984 64.18C114.984 64.7133 114.834 65.1667 114.536 65.54C114.237 65.9133 113.826 66.2013 113.304 66.404C112.781 66.596 112.178 66.692 111.496 66.692ZM119.652 66.5C118.841 66.5 118.244 66.3133 117.86 65.94C117.476 65.5667 117.284 64.9853 117.284 64.196V55.988H118.98V64.068C118.98 64.4627 119.065 64.7347 119.236 64.884C119.406 65.0333 119.668 65.108 120.02 65.108H121.236V66.5H119.652ZM115.988 59.38V57.988H121.236V59.38H115.988Z" fill="#EDEDED"/>
<g clip-path="url(#clip3_1_6)">
<path d="M137 61.5C137.215 61.7871 137.489 62.0246 137.803 62.1965C138.118 62.3683 138.466 62.4706 138.823 62.4962C139.181 62.5218 139.54 62.4702 139.876 62.3449C140.212 62.2196 140.517 62.0235 140.77 61.77L142.27 60.27C142.725 59.7985 142.977 59.167 142.972 58.5115C142.966 57.856 142.703 57.229 142.24 56.7655C141.776 56.3019 141.149 56.039 140.494 56.0333C139.838 56.0276 139.207 56.2796 138.735 56.735L137.875 57.59" stroke="#8A8A8A" stroke-width="2" stroke-linecap="round" stroke-linejoin="round"/>
<path d="M139 60.5C138.785 60.2129 138.511 59.9754 138.197 59.8035C137.882 59.6317 137.534 59.5294 137.177 59.5038C136.819 59.4782 136.46 59.5298 136.124 59.6551C135.788 59.7804 135.483 59.9765 135.23 60.23L133.73 61.73C133.275 62.2015 133.023 62.833 133.028 63.4885C133.034 64.144 133.297 64.771 133.76 65.2346C134.224 65.6981 134.851 65.961 135.506 65.9667C136.162 65.9724 136.793 65.7204 137.265 65.265L138.12 64.41" stroke="#8A8A8A" stroke-width="2" stroke-linecap="round" stroke-linejoin="round"/>
</g>
<rect x="17" y="97" width="24" height="24" rx="6" fill="white" fill-opacity="0.1"/>
<g clip-path="url(#clip4_1_6)">
<path d="M30.875 101L35 105L32.9375 105.364L30.875 105L30.5 103L30.875 101Z" fill="#188038"/>
<path d="M30.875 105V101H24.125C23.5034 101 23 101.488 23 102.091V115.909C23 116.512 23.5034 117 24.125 117H33.875C34.4966 117 35 116.512 35 115.909V105H30.875Z" fill="#34A853"/>
<path d="M25.25 107.182V112.455H32.75V107.182H25.25ZM28.5312 111.545H26.1875V110.273H28.5312V111.545ZM28.5312 109.364H26.1875V108.091H28.5312V109.364ZM31.8125 111.545H29.4688V110.273H31.8125V111.545ZM31.8125 109.364H29.4688V108.091H31.8125V109.364Z" fill="white"/>
</g>
<path d="M52.376 114.5V103.14H54.104V114.5H52.376ZM56.825 114.5V105.988H58.377L58.425 108.1L58.233 108.036C58.329 107.567 58.4943 107.167 58.729 106.836C58.9743 106.505 59.273 106.249 59.625 106.068C59.977 105.887 60.361 105.796 60.777 105.796C61.5023 105.796 62.0943 106.004 62.553 106.42C63.0117 106.825 63.2997 107.385 63.417 108.1H63.145C63.241 107.599 63.401 107.183 63.625 106.852C63.8597 106.511 64.1583 106.249 64.521 106.068C64.8837 105.887 65.2943 105.796 65.753 105.796C66.3503 105.796 66.857 105.924 67.273 106.18C67.6997 106.425 68.0197 106.788 68.233 107.268C68.457 107.748 68.569 108.335 68.569 109.028V114.5H66.873V109.444C66.873 108.708 66.7397 108.153 66.473 107.78C66.2063 107.407 65.801 107.22 65.257 107.22C64.905 107.22 64.5957 107.311 64.329 107.492C64.0623 107.673 63.8543 107.935 63.705 108.276C63.5663 108.617 63.497 109.028 63.497 109.508V114.5H61.881V109.508C61.881 108.783 61.7583 108.223 61.513 107.828C61.2783 107.423 60.873 107.22 60.297 107.22C59.9343 107.22 59.6197 107.311 59.353 107.492C59.097 107.673 58.8943 107.94 58.745 108.292C58.5957 108.633 58.521 109.039 58.521 109.508V114.5H56.825ZM70.6844 116.9V105.988H72.2844L72.3324 107.812L72.1404 107.716C72.3537 107.087 72.7057 106.612 73.1964 106.292C73.687 105.961 74.2524 105.796 74.8924 105.796C75.7244 105.796 76.407 106.004 76.9404 106.42C77.4844 106.825 77.8844 107.364 78.1404 108.036C78.407 108.708 78.5404 109.444 78.5404 110.244C78.5404 111.044 78.407 111.78 78.1404 112.452C77.8844 113.124 77.4844 113.668 76.9404 114.084C76.407 114.489 75.7244 114.692 74.8924 114.692C74.4657 114.692 74.0657 114.617 73.6924 114.468C73.319 114.319 72.999 114.111 72.7324 113.844C72.4764 113.567 72.295 113.241 72.1884 112.868L72.3804 112.676V116.9H70.6844ZM74.5884 113.22C75.271 113.22 75.8044 112.959 76.1884 112.436C76.583 111.913 76.7804 111.183 76.7804 110.244C76.7804 109.305 76.583 108.575 76.1884 108.052C75.8044 107.529 75.271 107.268 74.5884 107.268C74.1404 107.268 73.751 107.38 73.4204 107.604C73.0897 107.817 72.8337 108.148 72.6524 108.596C72.471 109.044 72.3804 109.593 72.3804 110.244C72.3804 110.895 72.4657 111.444 72.6364 111.892C72.8177 112.34 73.0737 112.676 73.4044 112.9C73.7457 113.113 74.1404 113.22 74.5884 113.22ZM83.7665 114.692C82.9558 114.692 82.2465 114.511 81.6385 114.148C81.0305 113.785 80.5612 113.268 80.2305 112.596C79.8998 111.924 79.7345 111.14 79.7345 110.244C79.7345 109.337 79.8998 108.553 80.2305 107.892C80.5612 107.231 81.0305 106.719 81.6385 106.356C82.2465 105.983 82.9558 105.796 83.7665 105.796C84.5772 105.796 85.2865 105.983 85.8945 106.356C86.5025 106.719 86.9718 107.231 87.3025 107.892C87.6332 108.553 87.7985 109.337 87.7985 110.244C87.7985 111.14 87.6332 111.924 87.3025 112.596C86.9718 113.268 86.5025 113.785 85.8945 114.148C85.2865 114.511 84.5772 114.692 83.7665 114.692ZM83.7665 113.22C84.4918 113.22 85.0518 112.959 85.4465 112.436C85.8412 111.903 86.0385 111.172 86.0385 110.244C86.0385 109.316 85.8412 108.591 85.4465 108.068C85.0518 107.535 84.4918 107.268 83.7665 107.268C83.0518 107.268 82.4918 107.535 82.0865 108.068C81.6918 108.591 81.4945 109.316 81.4945 110.244C81.4945 111.172 81.6918 111.903 82.0865 112.436C82.4918 112.959 83.0518 113.22 83.7665 113.22ZM89.5125 114.5V105.988H91.0645L91.1285 108.244L90.9845 108.196C91.1018 107.428 91.3365 106.868 91.6885 106.516C92.0512 106.164 92.5365 105.988 93.1445 105.988H93.9605V107.508H93.1445C92.7178 107.508 92.3605 107.577 92.0725 107.716C91.7845 107.855 91.5658 108.068 91.4165 108.356C91.2778 108.644 91.2085 109.017 91.2085 109.476V114.5H89.5125ZM98.3703 114.5C97.5596 114.5 96.9623 114.313 96.5783 113.94C96.1943 113.567 96.0023 112.985 96.0023 112.196V103.988H97.6983V112.068C97.6983 112.463 97.7836 112.735 97.9543 112.884C98.1249 113.033 98.3863 113.108 98.7383 113.108H99.9543V114.5H98.3703ZM94.7063 107.38V105.988H99.9543V107.38H94.7063ZM103.912 114.692C103.027 114.692 102.317 114.489 101.784 114.084C101.261 113.679 101 113.108 101 112.372C101 111.636 101.219 111.065 101.656 110.66C102.104 110.244 102.792 109.945 103.72 109.764L106.648 109.204C106.648 108.543 106.493 108.052 106.184 107.732C105.875 107.401 105.416 107.236 104.808 107.236C104.264 107.236 103.837 107.359 103.528 107.604C103.219 107.839 103.005 108.191 102.888 108.66L101.144 108.548C101.304 107.695 101.699 107.023 102.328 106.532C102.968 106.041 103.795 105.796 104.808 105.796C105.96 105.796 106.835 106.105 107.432 106.724C108.04 107.332 108.344 108.191 108.344 109.3V112.612C108.344 112.815 108.376 112.959 108.44 113.044C108.515 113.119 108.632 113.156 108.792 113.156H109.096V114.5C109.043 114.511 108.957 114.521 108.84 114.532C108.723 114.543 108.6 114.548 108.472 114.548C108.109 114.548 107.795 114.489 107.528 114.372C107.272 114.255 107.08 114.063 106.952 113.796C106.824 113.519 106.76 113.151 106.76 112.692L106.936 112.772C106.851 113.145 106.664 113.476 106.376 113.764C106.099 114.052 105.741 114.281 105.304 114.452C104.877 114.612 104.413 114.692 103.912 114.692ZM104.184 113.348C104.696 113.348 105.133 113.252 105.496 113.06C105.859 112.857 106.141 112.58 106.344 112.228C106.547 111.876 106.648 111.476 106.648 111.028V110.484L104.152 110.964C103.64 111.06 103.277 111.215 103.064 111.428C102.861 111.631 102.76 111.892 102.76 112.212C102.76 112.575 102.883 112.857 103.128 113.06C103.384 113.252 103.736 113.348 104.184 113.348ZM110.528 114.5V105.988H112.08L112.144 108.26L111.936 108.148C112.032 107.593 112.213 107.145 112.48 106.804C112.747 106.463 113.072 106.212 113.456 106.052C113.84 105.881 114.256 105.796 114.704 105.796C115.344 105.796 115.872 105.94 116.288 106.228C116.715 106.505 117.035 106.889 117.248 107.38C117.472 107.86 117.584 108.409 117.584 109.028V114.5H115.888V109.54C115.888 109.039 115.835 108.617 115.728 108.276C115.621 107.935 115.445 107.673 115.2 107.492C114.955 107.311 114.635 107.22 114.24 107.22C113.643 107.22 113.157 107.417 112.784 107.812C112.411 108.207 112.224 108.783 112.224 109.54V114.5H110.528ZM122.636 114.5C121.825 114.5 121.228 114.313 120.844 113.94C120.46 113.567 120.268 112.985 120.268 112.196V103.988H121.964V112.068C121.964 112.463 122.049 112.735 122.22 112.884C122.391 113.033 122.652 113.108 123.004 113.108H124.22V114.5H122.636ZM118.972 107.38V105.988H124.22V107.38H118.972ZM130.001 114.5V103.14H133.649C135.43 103.14 136.801 103.636 137.761 104.628C138.721 105.609 139.201 107.012 139.201 108.836C139.201 110.649 138.726 112.047 137.777 113.028C136.838 114.009 135.494 114.5 133.745 114.5H130.001ZM131.729 112.916H133.649C134.908 112.916 135.846 112.58 136.465 111.908C137.094 111.225 137.409 110.201 137.409 108.836C137.409 107.449 137.094 106.42 136.465 105.748C135.846 105.065 134.908 104.724 133.649 104.724H131.729V112.916ZM144.798 114.692C143.987 114.692 143.278 114.511 142.67 114.148C142.062 113.785 141.592 113.268 141.262 112.596C140.931 111.924 140.766 111.14 140.766 110.244C140.766 109.337 140.931 108.553 141.262 107.892C141.592 107.231 142.062 106.719 142.67 106.356C143.278 105.983 143.987 105.796 144.798 105.796C145.608 105.796 146.318 105.983 146.926 106.356C147.534 106.719 148.003 107.231 148.334 107.892C148.664 108.553 148.83 109.337 148.83 110.244C148.83 111.14 148.664 111.924 148.334 112.596C148.003 113.268 147.534 113.785 146.926 114.148C146.318 114.511 145.608 114.692 144.798 114.692ZM144.798 113.22C145.523 113.22 146.083 112.959 146.478 112.436C146.872 111.903 147.07 111.172 147.07 110.244C147.07 109.316 146.872 108.591 146.478 108.068C146.083 107.535 145.523 107.268 144.798 107.268C144.083 107.268 143.523 107.535 143.118 108.068C142.723 108.591 142.526 109.316 142.526 110.244C142.526 111.172 142.723 111.903 143.118 112.436C143.523 112.959 144.083 113.22 144.798 113.22ZM154.048 114.692C153.237 114.692 152.528 114.511 151.92 114.148C151.312 113.785 150.842 113.268 150.512 112.596C150.181 111.924 150.016 111.14 150.016 110.244C150.016 109.348 150.181 108.569 150.512 107.908C150.842 107.236 151.312 106.719 151.92 106.356C152.528 105.983 153.237 105.796 154.048 105.796C154.741 105.796 155.354 105.919 155.888 106.164C156.432 106.399 156.869 106.745 157.2 107.204C157.541 107.663 157.76 108.223 157.856 108.884L156.08 108.98C155.994 108.425 155.77 108.004 155.408 107.716C155.045 107.417 154.592 107.268 154.048 107.268C153.333 107.268 152.773 107.535 152.368 108.068C151.973 108.591 151.776 109.316 151.776 110.244C151.776 111.172 151.973 111.903 152.368 112.436C152.773 112.959 153.333 113.22 154.048 113.22C154.592 113.22 155.045 113.071 155.408 112.772C155.77 112.463 155.994 111.999 156.08 111.38L157.856 111.476C157.76 112.127 157.541 112.692 157.2 113.172C156.869 113.652 156.432 114.025 155.888 114.292C155.354 114.559 154.741 114.692 154.048 114.692ZM162.203 114.692C161.35 114.692 160.667 114.409 160.155 113.844C159.654 113.268 159.403 112.473 159.403 111.46V105.988H161.099V111.028C161.099 111.796 161.232 112.361 161.499 112.724C161.766 113.087 162.171 113.268 162.715 113.268C163.334 113.268 163.814 113.071 164.155 112.676C164.507 112.271 164.683 111.705 164.683 110.98V105.988H166.379V114.5H164.795L164.763 112.276L165.003 112.372C164.854 113.119 164.539 113.695 164.059 114.1C163.579 114.495 162.96 114.692 162.203 114.692ZM168.778 114.5V105.988H170.33L170.378 108.1L170.186 108.036C170.282 107.567 170.447 107.167 170.682 106.836C170.927 106.505 171.226 106.249 171.578 106.068C171.93 105.887 172.314 105.796 172.73 105.796C173.455 105.796 174.047 106.004 174.506 106.42C174.965 106.825 175.253 107.385 175.37 108.1H175.098C175.194 107.599 175.354 107.183 175.578 106.852C175.813 106.511 176.111 106.249 176.474 106.068C176.837 105.887 177.247 105.796 177.706 105.796C178.303 105.796 178.81 105.924 179.226 106.18C179.653 106.425 179.973 106.788 180.186 107.268C180.41 107.748 180.522 108.335 180.522 109.028V114.5H178.826V109.444C178.826 108.708 178.693 108.153 178.426 107.78C178.159 107.407 177.754 107.22 177.21 107.22C176.858 107.22 176.549 107.311 176.282 107.492C176.015 107.673 175.807 107.935 175.658 108.276C175.519 108.617 175.45 109.028 175.45 109.508V114.5H173.834V109.508C173.834 108.783 173.711 108.223 173.466 107.828C173.231 107.423 172.826 107.22 172.25 107.22C171.887 107.22 171.573 107.311 171.306 107.492C171.05 107.673 170.847 107.94 170.698 108.292C170.549 108.633 170.474 109.039 170.474 109.508V114.5H168.778ZM186.251 114.692C185.419 114.692 184.699 114.511 184.091 114.148C183.494 113.785 183.03 113.268 182.699 112.596C182.379 111.924 182.219 111.14 182.219 110.244C182.219 109.348 182.379 108.569 182.699 107.908C183.03 107.236 183.494 106.719 184.091 106.356C184.688 105.983 185.392 105.796 186.203 105.796C186.971 105.796 187.648 105.977 188.235 106.34C188.822 106.692 189.275 107.204 189.595 107.876C189.926 108.548 190.091 109.359 190.091 110.308V110.74H183.979C184.022 111.572 184.24 112.196 184.635 112.612C185.04 113.028 185.584 113.236 186.267 113.236C186.768 113.236 187.184 113.119 187.515 112.884C187.846 112.649 188.075 112.335 188.203 111.94L189.963 112.052C189.739 112.841 189.296 113.481 188.635 113.972C187.984 114.452 187.19 114.692 186.251 114.692ZM183.979 109.46H188.299C188.246 108.703 188.027 108.143 187.643 107.78C187.27 107.417 186.79 107.236 186.203 107.236C185.595 107.236 185.094 107.428 184.699 107.812C184.315 108.185 184.075 108.735 183.979 109.46ZM191.809 114.5V105.988H193.361L193.425 108.26L193.217 108.148C193.313 107.593 193.495 107.145 193.761 106.804C194.028 106.463 194.353 106.212 194.737 106.052C195.121 105.881 195.537 105.796 195.985 105.796C196.625 105.796 197.153 105.94 197.569 106.228C197.996 106.505 198.316 106.889 198.529 107.38C198.753 107.86 198.865 108.409 198.865 109.028V114.5H197.169V109.54C197.169 109.039 197.116 108.617 197.009 108.276C196.903 107.935 196.727 107.673 196.481 107.492C196.236 107.311 195.916 107.22 195.521 107.22C194.924 107.22 194.439 107.417 194.065 107.812C193.692 108.207 193.505 108.783 193.505 109.54V114.5H191.809ZM203.917 114.5C203.106 114.5 202.509 114.313 202.125 113.94C201.741 113.567 201.549 112.985 201.549 112.196V103.988H203.245V112.068C203.245 112.463 203.33 112.735 203.501 112.884C203.672 113.033 203.933 113.108 204.285 113.108H205.501V114.5H203.917ZM200.253 107.38V105.988H205.501V107.38H200.253Z" fill="#EDEDED"/>
<g clip-path="url(#clip5_1_6)">
<path d="M222 109.5C222.215 109.787 222.489 110.025 222.803 110.196C223.118 110.368 223.466 110.471 223.823 110.496C224.181 110.522 224.54 110.47 224.876 110.345C225.212 110.22 225.517 110.024 225.77 109.77L227.27 108.27C227.725 107.798 227.977 107.167 227.972 106.511C227.966 105.856 227.703 105.229 227.24 104.765C226.776 104.302 226.149 104.039 225.494 104.033C224.838 104.028 224.207 104.28 223.735 104.735L222.875 105.59" stroke="#8A8A8A" stroke-width="2" stroke-linecap="round" stroke-linejoin="round"/>
<path d="M224 108.5C223.785 108.213 223.511 107.975 223.197 107.804C222.882 107.632 222.534 107.529 222.177 107.504C221.819 107.478 221.46 107.53 221.124 107.655C220.788 107.78 220.483 107.976 220.23 108.23L218.73 109.73C218.275 110.202 218.023 110.833 218.028 111.489C218.034 112.144 218.297 112.771 218.76 113.235C219.224 113.698 219.851 113.961 220.506 113.967C221.162 113.972 221.793 113.72 222.265 113.265L223.12 112.41" stroke="#8A8A8A" stroke-width="2" stroke-linecap="round" stroke-linejoin="round"/>
</g>
<defs>
<clipPath id="clip0_1_6">
<rect width="464" height="24" fill="white" transform="translate(9 9)"/>
</clipPath>
<clipPath id="clip1_1_6">
<rect width="15.75" height="12" fill="white" transform="translate(21.5 55)"/>
</clipPath>
<clipPath id="clip2_1_6">
<rect width="15.75" height="12" fill="white" transform="translate(21.5 55)"/>
</clipPath>
<clipPath id="clip3_1_6">
<rect width="12" height="12" fill="white" transform="translate(132 55)"/>
</clipPath>
<clipPath id="clip4_1_6">
<rect width="12" height="16" fill="white" transform="translate(23 101)"/>
</clipPath>
<clipPath id="clip5_1_6">
<rect width="12" height="12" fill="white" transform="translate(217 103)"/>
</clipPath>
</defs>
</svg>
