<svg width="482" height="260" viewBox="0 0 482 260" fill="none" xmlns="http://www.w3.org/2000/svg">
<rect x="1" y="1" width="480" height="258" rx="6" fill="#151514"/>
<rect x="0.5" y="0.5" width="481" height="259" rx="6.5" stroke="#363636" stroke-opacity="0.4"/>
<g clip-path="url(#clip0_4_23)">
<path d="M10.376 25V13.64H17.768V15.224H12.104V18.536H17.576V20.072H12.104V23.416H17.896V25H10.376ZM22.6927 25.192C21.9674 25.192 21.3328 25.0107 20.7888 24.648C20.2554 24.2853 19.8448 23.7733 19.5568 23.112C19.2794 22.44 19.1408 21.6507 19.1408 20.744C19.1408 19.8373 19.2848 19.0533 19.5728 18.392C19.8608 17.72 20.2714 17.2027 20.8048 16.84C21.3381 16.4773 21.9674 16.296 22.6927 16.296C23.2794 16.296 23.8021 16.4187 24.2608 16.664C24.7194 16.9093 25.0661 17.2507 25.3008 17.688V13.64H26.9968V25H25.4128L25.3648 23.72C25.1301 24.1787 24.7728 24.5413 24.2928 24.808C23.8234 25.064 23.2901 25.192 22.6927 25.192ZM23.1408 23.72C23.5994 23.72 23.9888 23.6027 24.3088 23.368C24.6288 23.1333 24.8741 22.792 25.0448 22.344C25.2154 21.896 25.3008 21.3627 25.3008 20.744C25.3008 20.104 25.2154 19.5653 25.0448 19.128C24.8741 18.68 24.6288 18.344 24.3088 18.12C23.9888 17.8853 23.5994 17.768 23.1408 17.768C22.4581 17.768 21.9141 18.0347 21.5088 18.568C21.1034 19.0907 20.9008 19.816 20.9008 20.744C20.9008 21.6613 21.1034 22.3867 21.5088 22.92C21.9141 23.4533 22.4581 23.72 23.1408 23.72ZM29.1219 25V16.488H30.8179V25H29.1219ZM29.0899 15.256V13.56H30.8499V15.256H29.0899ZM35.9015 25C35.0908 25 34.4935 24.8133 34.1095 24.44C33.7255 24.0667 33.5335 23.4853 33.5335 22.696V14.488H35.2295V22.568C35.2295 22.9627 35.3148 23.2347 35.4855 23.384C35.6562 23.5333 35.9175 23.608 36.2695 23.608H37.4855V25H35.9015ZM32.2375 17.88V16.488H37.4855V17.88H32.2375ZM42.4696 25.192C41.659 25.192 40.9496 25.0107 40.3416 24.648C39.7336 24.2853 39.2643 23.768 38.9336 23.096C38.603 22.424 38.4376 21.64 38.4376 20.744C38.4376 19.8373 38.603 19.0533 38.9336 18.392C39.2643 17.7307 39.7336 17.2187 40.3416 16.856C40.9496 16.4827 41.659 16.296 42.4696 16.296C43.2803 16.296 43.9896 16.4827 44.5976 16.856C45.2056 17.2187 45.675 17.7307 46.0056 18.392C46.3363 19.0533 46.5016 19.8373 46.5016 20.744C46.5016 21.64 46.3363 22.424 46.0056 23.096C45.675 23.768 45.2056 24.2853 44.5976 24.648C43.9896 25.0107 43.2803 25.192 42.4696 25.192ZM42.4696 23.72C43.195 23.72 43.755 23.4587 44.1496 22.936C44.5443 22.4027 44.7416 21.672 44.7416 20.744C44.7416 19.816 44.5443 19.0907 44.1496 18.568C43.755 18.0347 43.195 17.768 42.4696 17.768C41.755 17.768 41.195 18.0347 40.7896 18.568C40.395 19.0907 40.1976 19.816 40.1976 20.744C40.1976 21.672 40.395 22.4027 40.7896 22.936C41.195 23.4587 41.755 23.72 42.4696 23.72ZM48.2156 25V16.488H49.7676L49.8316 18.744L49.6876 18.696C49.805 17.928 50.0396 17.368 50.3916 17.016C50.7543 16.664 51.2396 16.488 51.8476 16.488H52.6636V18.008H51.8476C51.421 18.008 51.0636 18.0773 50.7756 18.216C50.4876 18.3547 50.269 18.568 50.1196 18.856C49.981 19.144 49.9116 19.5173 49.9116 19.976V25H48.2156Z" fill="#EDEDED"/>
<path d="M437.704 23.224C436.939 23.224 436.271 23.0793 435.702 22.79C435.133 22.5007 434.68 22.104 434.344 21.6C434.017 21.0867 433.826 20.494 433.77 19.822L435.03 19.738C435.095 20.2327 435.24 20.6527 435.464 20.998C435.688 21.3433 435.987 21.6047 436.36 21.782C436.743 21.9593 437.2 22.048 437.732 22.048C438.199 22.048 438.595 21.9873 438.922 21.866C439.249 21.7447 439.496 21.5673 439.664 21.334C439.841 21.1007 439.93 20.816 439.93 20.48C439.93 20.172 439.855 19.9013 439.706 19.668C439.566 19.4253 439.291 19.206 438.88 19.01C438.479 18.8047 437.881 18.604 437.088 18.408C436.323 18.212 435.711 17.9973 435.254 17.764C434.806 17.5307 434.479 17.246 434.274 16.91C434.078 16.574 433.98 16.1587 433.98 15.664C433.98 15.104 434.111 14.614 434.372 14.194C434.643 13.7647 435.025 13.4333 435.52 13.2C436.015 12.9573 436.603 12.836 437.284 12.836C438.012 12.836 438.637 12.976 439.16 13.256C439.683 13.5267 440.098 13.9 440.406 14.376C440.714 14.852 440.905 15.3933 440.98 16L439.72 16.084C439.664 15.6827 439.533 15.328 439.328 15.02C439.132 14.7027 438.861 14.4553 438.516 14.278C438.171 14.1007 437.751 14.012 437.256 14.012C436.64 14.012 436.15 14.1613 435.786 14.46C435.422 14.7493 435.24 15.132 435.24 15.608C435.24 15.916 435.31 16.1727 435.45 16.378C435.599 16.574 435.861 16.7513 436.234 16.91C436.607 17.0593 437.144 17.2227 437.844 17.4C438.675 17.6053 439.333 17.8527 439.818 18.142C440.313 18.422 440.663 18.7487 440.868 19.122C441.083 19.4953 441.19 19.92 441.19 20.396C441.19 20.9747 441.041 21.4787 440.742 21.908C440.443 22.328 440.033 22.6547 439.51 22.888C438.987 23.112 438.385 23.224 437.704 23.224ZM445.214 23.168C444.448 23.168 443.837 22.9907 443.38 22.636C442.932 22.2813 442.708 21.7867 442.708 21.152C442.708 20.5173 442.894 20.018 443.268 19.654C443.641 19.29 444.234 19.0333 445.046 18.884L447.678 18.394C447.678 17.7687 447.528 17.302 447.23 16.994C446.94 16.686 446.502 16.532 445.914 16.532C445.4 16.532 444.994 16.6487 444.696 16.882C444.397 17.106 444.192 17.4327 444.08 17.862L442.834 17.764C442.974 17.064 443.31 16.4993 443.842 16.07C444.383 15.6313 445.074 15.412 445.914 15.412C446.866 15.412 447.594 15.6827 448.098 16.224C448.602 16.756 448.854 17.4933 448.854 18.436V21.502C448.854 21.67 448.882 21.7913 448.938 21.866C449.003 21.9313 449.106 21.964 449.246 21.964H449.54V23C449.502 23.0093 449.442 23.014 449.358 23.014C449.274 23.0233 449.185 23.028 449.092 23.028C448.756 23.028 448.48 22.9767 448.266 22.874C448.06 22.762 447.911 22.594 447.818 22.37C447.724 22.1367 447.678 21.8333 447.678 21.46L447.818 21.488C447.752 21.8053 447.594 22.0947 447.342 22.356C447.09 22.608 446.777 22.8087 446.404 22.958C446.03 23.098 445.634 23.168 445.214 23.168ZM445.326 22.132C445.82 22.132 446.24 22.0387 446.586 21.852C446.94 21.656 447.211 21.3947 447.398 21.068C447.584 20.732 447.678 20.3587 447.678 19.948V19.416L445.27 19.864C444.766 19.9573 444.416 20.102 444.22 20.298C444.033 20.4847 443.94 20.732 443.94 21.04C443.94 21.3853 444.061 21.656 444.304 21.852C444.556 22.0387 444.896 22.132 445.326 22.132ZM452.471 23L449.769 15.58H451.057L453.213 21.796L455.369 15.58H456.657L453.955 23H452.471ZM460.616 23.168C459.916 23.168 459.309 23.0093 458.796 22.692C458.292 22.3747 457.9 21.9267 457.62 21.348C457.349 20.76 457.214 20.074 457.214 19.29C457.214 18.506 457.349 17.8247 457.62 17.246C457.9 16.6673 458.287 16.2193 458.782 15.902C459.286 15.5753 459.878 15.412 460.56 15.412C461.204 15.412 461.773 15.566 462.268 15.874C462.762 16.1727 463.145 16.6113 463.416 17.19C463.696 17.7687 463.836 18.4733 463.836 19.304V19.654H458.446C458.492 20.4473 458.702 21.0447 459.076 21.446C459.458 21.8473 459.972 22.048 460.616 22.048C461.101 22.048 461.498 21.936 461.806 21.712C462.123 21.4787 462.342 21.1753 462.464 20.802L463.724 20.9C463.528 21.5627 463.154 22.1087 462.604 22.538C462.062 22.958 461.4 23.168 460.616 23.168ZM458.446 18.618H462.548C462.492 17.8993 462.282 17.372 461.918 17.036C461.563 16.7 461.11 16.532 460.56 16.532C459.99 16.532 459.519 16.7093 459.146 17.064C458.782 17.4093 458.548 17.9273 458.446 18.618ZM468.061 23.168C467.417 23.168 466.857 23.0093 466.381 22.692C465.914 22.3747 465.555 21.9267 465.303 21.348C465.051 20.7693 464.925 20.0833 464.925 19.29C464.925 18.4967 465.051 17.8107 465.303 17.232C465.555 16.6533 465.914 16.2053 466.381 15.888C466.857 15.5707 467.417 15.412 468.061 15.412C468.555 15.412 469.008 15.5193 469.419 15.734C469.829 15.9393 470.137 16.2333 470.343 16.616V13.06H471.519V23H470.455L470.413 21.88C470.207 22.2813 469.895 22.5987 469.475 22.832C469.055 23.056 468.583 23.168 468.061 23.168ZM468.299 22.048C468.737 22.048 469.106 21.936 469.405 21.712C469.713 21.488 469.946 21.1707 470.105 20.76C470.263 20.34 470.343 19.85 470.343 19.29C470.343 18.7113 470.263 18.2167 470.105 17.806C469.946 17.3953 469.713 17.0827 469.405 16.868C469.106 16.644 468.737 16.532 468.299 16.532C467.645 16.532 467.123 16.7793 466.731 17.274C466.348 17.7593 466.157 18.4313 466.157 19.29C466.157 20.1393 466.348 20.8113 466.731 21.306C467.123 21.8007 467.645 22.048 468.299 22.048Z" fill="#8A8A8A" fill-opacity="0.5"/>
</g>
<rect x="9" y="38" width="464" height="213" rx="6" fill="#10100F"/>
<rect x="9.5" y="38.5" width="463" height="212" rx="5.5" stroke="#363636" stroke-opacity="0.4"/>
<defs>
<clipPath id="clip0_4_23">
<rect width="464" height="21" fill="white" transform="translate(9 9)"/>
</clipPath>
</defs>
</svg>
