<svg xmlns="http://www.w3.org/2000/svg" width="480" height="258" viewBox="0 0 480 258">
  <!-- Background -->
  <rect x="0" y="0" width="480" height="258" rx="16" fill="#0E0E0E"/>

  <text x="24" y="36"
        fill="#FFFFFF"
        font-size="18"
        font-weight="600"
        font-family="Inter, system-ui, sans-serif">
    Frame
  </text>

  <!-- Add icon placeholder -->
  <rect x="436" y="20" width="24" height="24" rx="6" fill="#1F1F1F"/>
  <line x1="448" y1="26" x2="448" y2="38" stroke="#9A9A9A" stroke-width="2"/>
  <line x1="442" y1="32" x2="454" y2="32" stroke="#9A9A9A" stroke-width="2"/>

  <!-- Frame surface -->
  <rect x="16" y="56" width="448" height="186" rx="12" fill="#151515"/>
  <rect x="28" y="68" width="424" height="162" rx="10" fill="#0E0E0E" stroke="#2A2A2A" stroke-width="1"/>

  <!-- Toolbar -->
  <rect x="36" y="76" width="120" height="18" rx="9" fill="#1F1F1F"/>
  <circle cx="46" cy="85" r="4" fill="#2A2A2A"/>
  <circle cx="58" cy="85" r="4" fill="#2A2A2A"/>
  <circle cx="70" cy="85" r="4" fill="#2A2A2A"/>

  <!-- URL bar -->
  <rect x="168" y="76" width="260" height="18" rx="9" fill="#1F1F1F"/>
  <text x="180" y="89"
        fill="#9A9A9A"
        font-size="10"
        font-weight="500"
        font-family="Inter, system-ui, sans-serif">
    https://example.com
  </text>

  <!-- Content -->
  <rect x="44" y="108" width="130" height="72" rx="8" fill="#1F1F1F"/>
  <rect x="184" y="108" width="244" height="12" rx="6" fill="#2A2A2A"/>
  <rect x="184" y="128" width="200" height="12" rx="6" fill="#2A2A2A"/>
  <rect x="184" y="148" width="220" height="12" rx="6" fill="#2A2A2A"/>

  <rect x="44" y="192" width="384" height="8" rx="4" fill="#1F1F1F"/>
  <rect x="44" y="208" width="320" height="8" rx="4" fill="#1F1F1F"/>
</svg>
