<svg xmlns="http://www.w3.org/2000/svg" width="480" height="258" viewBox="0 0 480 258">
  <!-- Background -->
  <rect x="0" y="0" width="480" height="258" rx="16" fill="#0E0E0E"/>

  <!-- Header -->
  <text x="24" y="36"
        fill="#FFFFFF"
        font-size="18"
        font-weight="600"
        font-family="Inter, system-ui, sans-serif">
    Github
  </text>

  <!-- Badge -->
  <rect x="92" y="20" width="52" height="20" rx="10" fill="#2A1A12"/>
  <text x="118" y="35"
        text-anchor="middle"
        fill="#FF8A3D"
        font-size="12"
        font-weight="600"
        font-family="Inter, system-ui, sans-serif">
    7 open
  </text>

  <!-- Action icons -->
  <rect x="404" y="20" width="24" height="24" rx="6" fill="#1F1F1F"/>
  <rect x="440" y="20" width="24" height="24" rx="6" fill="#1F1F1F"/>

  <!-- Search -->
  <rect x="16" y="52" width="448" height="36" rx="10" fill="#151515"/>
  <text x="32" y="76"
        fill="#6F6F6F"
        font-size="14"
        font-family="Inter, system-ui, sans-serif">
    Search…
  </text>

  <!-- Tabs -->
  <rect x="16" y="96" width="216" height="32" rx="10" fill="#1F1F1F"/>
  <rect x="232" y="96" width="232" height="32" rx="10" fill="#0E0E0E"/>

  <text x="124" y="118"
        text-anchor="middle"
        fill="#FFFFFF"
        font-size="14"
        font-weight="600"
        font-family="Inter, system-ui, sans-serif">
    Issues
  </text>

  <text x="348" y="118"
        text-anchor="middle"
        fill="#9A9A9A"
        font-size="14"
        font-weight="500"
        font-family="Inter, system-ui, sans-serif">
    Pull Requests
  </text>

  <!-- List item 1 -->
  <rect x="16" y="136" width="448" height="44" rx="10" fill="#151515"/>

  <!-- Status icon -->
  <circle cx="36" cy="158" r="8" fill="#F5A623"/>

  <!-- Title -->
  <text x="56" y="156"
        fill="#FFFFFF"
        font-size="14"
        font-weight="500"
        font-family="Inter, system-ui, sans-serif">
    Language System
  </text>

  <!-- Meta -->
  <text x="56" y="172"
        fill="#9A9A9A"
        font-size="12"
        font-family="Inter, system-ui, sans-serif">
    cygnus
  </text>

  <!-- Date -->
  <text x="440" y="166"
        text-anchor="end"
        fill="#9A9A9A"
        font-size="12"
        font-family="Inter, system-ui, sans-serif">
    16/10/2025
  </text>

  <!-- List item 2 (partial) -->
  <rect x="16" y="184" width="448" height="44" rx="10" fill="#151515"/>

  <circle cx="36" cy="206" r="8" fill="#F5A623"/>

  <rect x="56" y="196" width="220" height="10" rx="5" fill="#2A2A2A"/>
</svg>
