<svg width="482" height="260" viewBox="0 0 482 260" fill="none" xmlns="http://www.w3.org/2000/svg">
<rect x="1" y="1" width="480" height="258" rx="6" fill="#151514"/>
<rect x="0.5" y="0.5" width="481" height="259" rx="6.5" stroke="#363636" stroke-opacity="0.4"/>
<g clip-path="url(#clip0_4_56)">
<path d="M14.84 25.256C13.7627 25.256 12.84 25.0053 12.072 24.504C11.304 23.992 10.7173 23.2933 10.312 22.408C9.90667 21.512 9.704 20.488 9.704 19.336C9.704 18.1947 9.90667 17.176 10.312 16.28C10.728 15.384 11.3253 14.68 12.104 14.168C12.8827 13.6453 13.816 13.384 14.904 13.384C15.832 13.384 16.616 13.5493 17.256 13.88C17.9067 14.2107 18.4187 14.664 18.792 15.24C19.176 15.816 19.4427 16.472 19.592 17.208L17.784 17.304C17.656 16.6107 17.368 16.0507 16.92 15.624C16.472 15.1867 15.8 14.968 14.904 14.968C14.1147 14.968 13.4693 15.1653 12.968 15.56C12.4667 15.9547 12.0933 16.4827 11.848 17.144C11.6133 17.8053 11.496 18.536 11.496 19.336C11.496 20.168 11.6133 20.9093 11.848 21.56C12.0933 22.2107 12.4667 22.728 12.968 23.112C13.48 23.4853 14.1307 23.672 14.92 23.672C15.5387 23.672 16.072 23.5387 16.52 23.272C16.968 23.0053 17.3147 22.6427 17.56 22.184C17.816 21.7253 17.9547 21.2187 17.976 20.664H14.936V19.208H19.624V25H18.44L18.328 22.44L18.552 22.632C18.4347 23.144 18.1947 23.5973 17.832 23.992C17.4693 24.3867 17.0267 24.696 16.504 24.92C15.992 25.144 15.4373 25.256 14.84 25.256ZM21.6063 25V16.488H23.3023V25H21.6063ZM21.5743 15.256V13.56H23.3343V15.256H21.5743ZM28.3859 25C27.5752 25 26.9779 24.8133 26.5939 24.44C26.2099 24.0667 26.0179 23.4853 26.0179 22.696V14.488H27.7139V22.568C27.7139 22.9627 27.7992 23.2347 27.9699 23.384C28.1405 23.5333 28.4019 23.608 28.7539 23.608H29.9699V25H28.3859ZM24.7219 17.88V16.488H29.9699V17.88H24.7219ZM31.5906 25V13.64H33.2866V18.408L33.0786 18.376C33.1746 17.896 33.3506 17.5067 33.6066 17.208C33.8626 16.8987 34.1773 16.6693 34.5506 16.52C34.924 16.3707 35.3346 16.296 35.7826 16.296C36.4013 16.296 36.924 16.4347 37.3506 16.712C37.7773 16.9787 38.0973 17.3573 38.3106 17.848C38.5346 18.3387 38.6466 18.8987 38.6466 19.528V25H36.9506V19.976C36.9506 19.208 36.8173 18.6427 36.5506 18.28C36.2946 17.9067 35.8893 17.72 35.3346 17.72C34.716 17.72 34.22 17.9173 33.8466 18.312C33.4733 18.696 33.2866 19.2613 33.2866 20.008V25H31.5906ZM43.625 25.192C42.7717 25.192 42.089 24.9093 41.577 24.344C41.0757 23.768 40.825 22.9733 40.825 21.96V16.488H42.521V21.528C42.521 22.296 42.6543 22.8613 42.921 23.224C43.1877 23.5867 43.593 23.768 44.137 23.768C44.7557 23.768 45.2357 23.5707 45.577 23.176C45.929 22.7707 46.105 22.2053 46.105 21.48V16.488H47.801V25H46.217L46.185 22.776L46.425 22.872C46.2757 23.6187 45.961 24.1947 45.481 24.6C45.001 24.9947 44.3823 25.192 43.625 25.192ZM54.2369 25.192C53.6502 25.192 53.1275 25.064 52.6689 24.808C52.2209 24.5413 51.8742 24.1787 51.6289 23.72L51.5809 25H49.9969V13.64H51.6929V17.688C51.9169 17.3147 52.2475 16.9893 52.6849 16.712C53.1329 16.4347 53.6502 16.296 54.2369 16.296C54.9729 16.296 55.6129 16.4773 56.1569 16.84C56.7009 17.2027 57.1169 17.72 57.4049 18.392C57.7035 19.0533 57.8529 19.8373 57.8529 20.744C57.8529 21.6507 57.7035 22.44 57.4049 23.112C57.1169 23.7733 56.7009 24.2853 56.1569 24.648C55.6129 25.0107 54.9729 25.192 54.2369 25.192ZM53.9649 23.72C54.6155 23.72 55.1329 23.4587 55.5169 22.936C55.9009 22.4027 56.0929 21.672 56.0929 20.744C56.0929 19.816 55.9009 19.0907 55.5169 18.568C55.1329 18.0347 54.6209 17.768 53.9809 17.768C53.5009 17.768 53.0902 17.8853 52.7489 18.12C52.4075 18.3547 52.1462 18.696 51.9649 19.144C51.7835 19.5813 51.6929 20.1147 51.6929 20.744C51.6929 21.352 51.7835 21.88 51.9649 22.328C52.1462 22.776 52.4075 23.1227 52.7489 23.368C53.0902 23.6027 53.4955 23.72 53.9649 23.72Z" fill="#EDEDED"/>
<path d="M321 21C321 15.7533 325.253 11.5 330.5 11.5H383.5C388.747 11.5 393 15.7533 393 21C393 26.2467 388.747 30.5 383.5 30.5H330.5C325.253 30.5 321 26.2467 321 21Z" fill="#ED6631" fill-opacity="0.1"/>
<path d="M330.5 12H383.5C388.471 12 392.5 16.0294 392.5 21C392.5 25.9706 388.471 30 383.5 30H330.5C325.529 30 321.5 25.9706 321.5 21C321.5 16.0294 325.529 12 330.5 12Z" stroke="#ED6631" stroke-opacity="0.4"/>
<path d="M335.6 24.5C335.6 23.9 335.692 23.36 335.876 22.88C336.068 22.392 336.4 21.928 336.872 21.488C337.352 21.048 338.016 20.604 338.864 20.156C339.256 19.948 339.572 19.756 339.812 19.58C340.052 19.404 340.228 19.216 340.34 19.016C340.452 18.816 340.508 18.572 340.508 18.284C340.508 17.988 340.444 17.732 340.316 17.516C340.188 17.292 339.996 17.116 339.74 16.988C339.492 16.86 339.18 16.796 338.804 16.796C338.204 16.796 337.728 16.952 337.376 17.264C337.032 17.576 336.816 18.02 336.728 18.596L335.648 18.524C335.744 17.692 336.064 17.028 336.608 16.532C337.152 16.036 337.884 15.788 338.804 15.788C339.388 15.788 339.888 15.892 340.304 16.1C340.72 16.308 341.036 16.6 341.252 16.976C341.476 17.344 341.588 17.772 341.588 18.26C341.588 18.692 341.516 19.068 341.372 19.388C341.228 19.7 340.984 19.992 340.64 20.264C340.304 20.536 339.84 20.828 339.248 21.14C338.736 21.412 338.304 21.688 337.952 21.968C337.608 22.248 337.344 22.52 337.16 22.784C336.984 23.04 336.888 23.276 336.872 23.492H341.6V24.5H335.6ZM352.991 24.644C352.407 24.644 351.895 24.508 351.455 24.236C351.023 23.964 350.687 23.58 350.447 23.084C350.207 22.58 350.087 21.992 350.087 21.32C350.087 20.64 350.207 20.052 350.447 19.556C350.687 19.06 351.023 18.676 351.455 18.404C351.895 18.132 352.407 17.996 352.991 17.996C353.575 17.996 354.083 18.132 354.515 18.404C354.955 18.676 355.295 19.06 355.535 19.556C355.775 20.052 355.895 20.64 355.895 21.32C355.895 21.992 355.775 22.58 355.535 23.084C355.295 23.58 354.955 23.964 354.515 24.236C354.083 24.508 353.575 24.644 352.991 24.644ZM352.991 23.684C353.575 23.684 354.027 23.476 354.347 23.06C354.675 22.636 354.839 22.056 354.839 21.32C354.839 20.584 354.675 20.008 354.347 19.592C354.027 19.168 353.575 18.956 352.991 18.956C352.407 18.956 351.951 19.168 351.623 19.592C351.303 20.008 351.143 20.584 351.143 21.32C351.143 22.056 351.303 22.636 351.623 23.06C351.951 23.476 352.407 23.684 352.991 23.684ZM357.546 26.3V18.14H358.482L358.506 19.58L358.362 19.508C358.522 19.012 358.786 18.636 359.154 18.38C359.53 18.124 359.962 17.996 360.45 17.996C361.082 17.996 361.598 18.152 361.998 18.464C362.406 18.776 362.706 19.184 362.898 19.688C363.09 20.192 363.186 20.736 363.186 21.32C363.186 21.904 363.09 22.448 362.898 22.952C362.706 23.456 362.406 23.864 361.998 24.176C361.598 24.488 361.082 24.644 360.45 24.644C360.122 24.644 359.814 24.588 359.526 24.476C359.246 24.364 359.006 24.208 358.806 24.008C358.614 23.808 358.482 23.572 358.41 23.3L358.554 23.132V26.3H357.546ZM360.354 23.684C360.906 23.684 361.338 23.476 361.65 23.06C361.97 22.644 362.13 22.064 362.13 21.32C362.13 20.576 361.97 19.996 361.65 19.58C361.338 19.164 360.906 18.956 360.354 18.956C359.986 18.956 359.666 19.044 359.394 19.22C359.13 19.396 358.922 19.66 358.77 20.012C358.626 20.364 358.554 20.8 358.554 21.32C358.554 21.84 358.626 22.276 358.77 22.628C358.914 22.98 359.122 23.244 359.394 23.42C359.666 23.596 359.986 23.684 360.354 23.684ZM367.489 24.644C366.889 24.644 366.369 24.508 365.929 24.236C365.497 23.964 365.161 23.58 364.921 23.084C364.689 22.58 364.573 21.992 364.573 21.32C364.573 20.648 364.689 20.064 364.921 19.568C365.161 19.072 365.493 18.688 365.917 18.416C366.349 18.136 366.857 17.996 367.441 17.996C367.993 17.996 368.481 18.128 368.905 18.392C369.329 18.648 369.661 19.024 369.901 19.52C370.141 20.016 370.261 20.62 370.261 21.332V21.632H365.629C365.669 22.312 365.849 22.824 366.169 23.168C366.497 23.512 366.937 23.684 367.489 23.684C367.905 23.684 368.245 23.588 368.509 23.396C368.781 23.196 368.969 22.936 369.073 22.616L370.153 22.7C369.985 23.268 369.665 23.736 369.193 24.104C368.729 24.464 368.161 24.644 367.489 24.644ZM365.629 20.744H369.157C369.109 20.128 368.929 19.676 368.617 19.388C368.305 19.1 367.913 18.956 367.441 18.956C366.953 18.956 366.549 19.108 366.229 19.412C365.917 19.708 365.717 20.152 365.629 20.744ZM371.985 24.5V18.14H372.909L372.945 19.76L372.825 19.652C372.905 19.276 373.049 18.968 373.257 18.728C373.473 18.48 373.729 18.296 374.025 18.176C374.321 18.056 374.633 17.996 374.961 17.996C375.449 17.996 375.853 18.104 376.173 18.32C376.501 18.536 376.749 18.828 376.917 19.196C377.085 19.556 377.169 19.96 377.169 20.408V24.5H376.161V20.696C376.161 20.104 376.045 19.656 375.813 19.352C375.581 19.04 375.225 18.884 374.745 18.884C374.417 18.884 374.121 18.956 373.857 19.1C373.593 19.236 373.381 19.44 373.221 19.712C373.069 19.976 372.993 20.304 372.993 20.696V24.5H371.985Z" fill="#ED6631"/>
<path d="M415.401 27.526C415.401 27.6629 415.442 27.7972 415.52 27.9137C415.598 28.0301 415.71 28.1243 415.843 28.1855L417.443 28.9223C417.565 28.9784 417.701 29.0049 417.837 28.9992C417.973 28.9936 418.106 28.9559 418.222 28.8898C418.338 28.8237 418.434 28.7315 418.5 28.6217C418.566 28.512 418.601 28.3884 418.601 28.2628V23.1051C418.601 22.7399 418.749 22.3878 419.015 22.117L424.794 16.2305C424.897 16.1248 424.966 15.9937 424.99 15.8532C425.014 15.7126 424.994 15.5685 424.931 15.4383C424.869 15.3082 424.767 15.1975 424.637 15.1197C424.508 15.0419 424.356 15.0003 424.202 15H409.8C409.645 15.0001 409.494 15.0414 409.364 15.1191C409.234 15.1968 409.132 15.3074 409.069 15.4376C409.006 15.5679 408.986 15.7121 409.01 15.8528C409.034 15.9935 409.102 16.1247 409.206 16.2305L414.987 22.117C415.253 22.3878 415.4 22.7399 415.401 23.1051V27.526Z" stroke="#BDBDBD" stroke-width="2" stroke-linecap="round" stroke-linejoin="round"/>
<path d="M463 21C463 19.4087 462.368 17.8826 461.243 16.7574C460.117 15.6321 458.591 15 457 15C455.323 15.0063 453.713 15.6608 452.507 16.8267L451 18.3333" stroke="#BDBDBD" stroke-width="2" stroke-linecap="round" stroke-linejoin="round"/>
<path d="M451 15V18.3333H454.333" stroke="#BDBDBD" stroke-width="2" stroke-linecap="round" stroke-linejoin="round"/>
<path d="M451 21C451 22.5913 451.632 24.1174 452.757 25.2426C453.883 26.3679 455.409 27 457 27C458.677 26.9937 460.287 26.3392 461.493 25.1733L463 23.6667" stroke="#BDBDBD" stroke-width="2" stroke-linecap="round" stroke-linejoin="round"/>
<path d="M459.667 23.6667H463V27" stroke="#BDBDBD" stroke-width="2" stroke-linecap="round" stroke-linejoin="round"/>
</g>
<rect x="9" y="41" width="464" height="32" rx="6" fill="#151514"/>
<rect x="9.5" y="41.5" width="463" height="31" rx="5.5" stroke="#363636" stroke-opacity="0.6"/>
<g filter="url(#filter0_d_4_56)">
<path d="M21.704 62.224C20.9387 62.224 20.2713 62.0793 19.702 61.79C19.1327 61.5007 18.68 61.104 18.344 60.6C18.0173 60.0867 17.826 59.494 17.77 58.822L19.03 58.738C19.0953 59.2327 19.24 59.6527 19.464 59.998C19.688 60.3433 19.9867 60.6047 20.36 60.782C20.7427 60.9593 21.2 61.048 21.732 61.048C22.1987 61.048 22.5953 60.9873 22.922 60.866C23.2487 60.7447 23.496 60.5673 23.664 60.334C23.8413 60.1007 23.93 59.816 23.93 59.48C23.93 59.172 23.8553 58.9013 23.706 58.668C23.566 58.4253 23.2907 58.206 22.88 58.01C22.4787 57.8047 21.8813 57.604 21.088 57.408C20.3227 57.212 19.7113 56.9973 19.254 56.764C18.806 56.5307 18.4793 56.246 18.274 55.91C18.078 55.574 17.98 55.1587 17.98 54.664C17.98 54.104 18.1107 53.614 18.372 53.194C18.6427 52.7647 19.0253 52.4333 19.52 52.2C20.0147 51.9573 20.6027 51.836 21.284 51.836C22.012 51.836 22.6373 51.976 23.16 52.256C23.6827 52.5267 24.098 52.9 24.406 53.376C24.714 53.852 24.9053 54.3933 24.98 55L23.72 55.084C23.664 54.6827 23.5333 54.328 23.328 54.02C23.132 53.7027 22.8613 53.4553 22.516 53.278C22.1707 53.1007 21.7507 53.012 21.256 53.012C20.64 53.012 20.15 53.1613 19.786 53.46C19.422 53.7493 19.24 54.132 19.24 54.608C19.24 54.916 19.31 55.1727 19.45 55.378C19.5993 55.574 19.8607 55.7513 20.234 55.91C20.6073 56.0593 21.144 56.2227 21.844 56.4C22.6747 56.6053 23.3327 56.8527 23.818 57.142C24.3127 57.422 24.6627 57.7487 24.868 58.122C25.0827 58.4953 25.19 58.92 25.19 59.396C25.19 59.9747 25.0407 60.4787 24.742 60.908C24.4433 61.328 24.0327 61.6547 23.51 61.888C22.9873 62.112 22.3853 62.224 21.704 62.224ZM30.1645 62.168C29.4645 62.168 28.8578 62.0093 28.3445 61.692C27.8405 61.3747 27.4485 60.9267 27.1685 60.348C26.8978 59.76 26.7625 59.074 26.7625 58.29C26.7625 57.506 26.8978 56.8247 27.1685 56.246C27.4485 55.6673 27.8358 55.2193 28.3305 54.902C28.8345 54.5753 29.4272 54.412 30.1085 54.412C30.7525 54.412 31.3218 54.566 31.8165 54.874C32.3112 55.1727 32.6938 55.6113 32.9645 56.19C33.2445 56.7687 33.3845 57.4733 33.3845 58.304V58.654H27.9945C28.0412 59.4473 28.2512 60.0447 28.6245 60.446C29.0072 60.8473 29.5205 61.048 30.1645 61.048C30.6498 61.048 31.0465 60.936 31.3545 60.712C31.6718 60.4787 31.8912 60.1753 32.0125 59.802L33.2725 59.9C33.0765 60.5627 32.7032 61.1087 32.1525 61.538C31.6112 61.958 30.9485 62.168 30.1645 62.168ZM27.9945 57.618H32.0965C32.0405 56.8993 31.8305 56.372 31.4665 56.036C31.1118 55.7 30.6592 55.532 30.1085 55.532C29.5392 55.532 29.0678 55.7093 28.6945 56.064C28.3305 56.4093 28.0972 56.9273 27.9945 57.618ZM37.1708 62.168C36.4055 62.168 35.7942 61.9907 35.3368 61.636C34.8888 61.2813 34.6648 60.7867 34.6648 60.152C34.6648 59.5173 34.8515 59.018 35.2248 58.654C35.5982 58.29 36.1908 58.0333 37.0028 57.884L39.6348 57.394C39.6348 56.7687 39.4855 56.302 39.1868 55.994C38.8975 55.686 38.4588 55.532 37.8708 55.532C37.3575 55.532 36.9515 55.6487 36.6528 55.882C36.3542 56.106 36.1488 56.4327 36.0368 56.862L34.7908 56.764C34.9308 56.064 35.2668 55.4993 35.7988 55.07C36.3402 54.6313 37.0308 54.412 37.8708 54.412C38.8228 54.412 39.5508 54.6827 40.0548 55.224C40.5588 55.756 40.8108 56.4933 40.8108 57.436V60.502C40.8108 60.67 40.8388 60.7913 40.8948 60.866C40.9602 60.9313 41.0628 60.964 41.2028 60.964H41.4968V62C41.4595 62.0093 41.3988 62.014 41.3148 62.014C41.2308 62.0233 41.1422 62.028 41.0488 62.028C40.7128 62.028 40.4375 61.9767 40.2228 61.874C40.0175 61.762 39.8682 61.594 39.7748 61.37C39.6815 61.1367 39.6348 60.8333 39.6348 60.46L39.7748 60.488C39.7095 60.8053 39.5508 61.0947 39.2988 61.356C39.0468 61.608 38.7342 61.8087 38.3608 61.958C37.9875 62.098 37.5908 62.168 37.1708 62.168ZM37.2828 61.132C37.7775 61.132 38.1975 61.0387 38.5428 60.852C38.8975 60.656 39.1682 60.3947 39.3548 60.068C39.5415 59.732 39.6348 59.3587 39.6348 58.948V58.416L37.2268 58.864C36.7228 58.9573 36.3728 59.102 36.1768 59.298C35.9902 59.4847 35.8968 59.732 35.8968 60.04C35.8968 60.3853 36.0182 60.656 36.2608 60.852C36.5128 61.0387 36.8535 61.132 37.2828 61.132ZM42.8251 62V54.58H43.8611L43.9171 56.456L43.8051 56.414C43.8984 55.7793 44.0991 55.3173 44.4071 55.028C44.7244 54.7293 45.1444 54.58 45.6671 54.58H46.3951V55.7H45.6811C45.3077 55.7 44.9951 55.77 44.7431 55.91C44.5004 56.0407 44.3137 56.2413 44.1831 56.512C44.0617 56.7733 44.0011 57.1093 44.0011 57.52V62H42.8251ZM50.4672 62.168C49.7766 62.168 49.1746 62.0093 48.6612 61.692C48.1572 61.3747 47.7652 60.9267 47.4852 60.348C47.2052 59.76 47.0652 59.074 47.0652 58.29C47.0652 57.506 47.2052 56.8247 47.4852 56.246C47.7652 55.6673 48.1572 55.2193 48.6612 54.902C49.1746 54.5753 49.7766 54.412 50.4672 54.412C51.0366 54.412 51.5406 54.5147 51.9792 54.72C52.4272 54.916 52.7912 55.2053 53.0712 55.588C53.3512 55.9707 53.5332 56.4373 53.6172 56.988L52.3852 57.072C52.3012 56.5773 52.0866 56.1993 51.7412 55.938C51.3959 55.6673 50.9712 55.532 50.4672 55.532C49.7859 55.532 49.2539 55.7793 48.8712 56.274C48.4886 56.7593 48.2972 57.4313 48.2972 58.29C48.2972 59.1487 48.4886 59.8253 48.8712 60.32C49.2539 60.8053 49.7859 61.048 50.4672 61.048C50.9712 61.048 51.3959 60.908 51.7412 60.628C52.0866 60.348 52.3012 59.928 52.3852 59.368L53.6172 59.452C53.5332 60.0027 53.3512 60.4833 53.0712 60.894C52.7912 61.2953 52.4272 61.608 51.9792 61.832C51.5406 62.056 51.0366 62.168 50.4672 62.168ZM55.0751 62V52.06H56.2511V56.218L56.1111 56.19C56.2044 55.7793 56.3631 55.4433 56.5871 55.182C56.8111 54.9207 57.0864 54.7293 57.4131 54.608C57.7397 54.4773 58.0991 54.412 58.4911 54.412C59.0231 54.412 59.4711 54.5333 59.8351 54.776C60.2084 55.0093 60.4884 55.3407 60.6751 55.77C60.8711 56.19 60.9691 56.6753 60.9691 57.226V62H59.7931V57.562C59.7931 56.8433 59.6624 56.3113 59.4011 55.966C59.1491 55.6207 58.7617 55.448 58.2391 55.448C57.6417 55.448 57.1611 55.63 56.7971 55.994C56.4331 56.358 56.2511 56.8853 56.2511 57.576V62H55.0751ZM62.7058 62V60.418H64.2878V62H62.7058ZM65.5223 62V60.418H67.1043V62H65.5223ZM68.3387 62V60.418H69.9207V62H68.3387Z" fill="#BDBDBD" fill-opacity="0.858824" shape-rendering="crispEdges"/>
</g>
<rect x="9" y="81" width="464" height="32" rx="6" fill="#10100F"/>
<rect x="9" y="81" width="196" height="32" rx="6" fill="#0D0D0D"/>
<rect x="9.5" y="81.5" width="195" height="31" rx="5.5" stroke="#363636" stroke-opacity="0.4"/>
<path d="M87.7802 102V92.06H88.9842V102H87.7802ZM93.9509 102.168C93.2882 102.168 92.7236 102.061 92.2569 101.846C91.7996 101.631 91.4402 101.337 91.1789 100.964C90.9269 100.581 90.7822 100.147 90.7449 99.662L91.9769 99.578C92.0516 100.026 92.2429 100.385 92.5509 100.656C92.8589 100.917 93.3256 101.048 93.9509 101.048C94.4549 101.048 94.8562 100.969 95.1549 100.81C95.4629 100.642 95.6169 100.376 95.6169 100.012C95.6169 99.816 95.5702 99.6527 95.4769 99.522C95.3836 99.3913 95.2016 99.2793 94.9309 99.186C94.6602 99.0833 94.2589 98.9853 93.7269 98.892C93.0176 98.7613 92.4576 98.6027 92.0469 98.416C91.6456 98.22 91.3562 97.982 91.1789 97.702C91.0109 97.4127 90.9269 97.072 90.9269 96.68C90.9269 96.0173 91.1696 95.476 91.6549 95.056C92.1402 94.6267 92.8309 94.412 93.7269 94.412C94.3336 94.412 94.8422 94.524 95.2529 94.748C95.6729 94.9627 95.9996 95.252 96.2329 95.616C96.4756 95.9707 96.6342 96.3627 96.7089 96.792L95.4769 96.876C95.4209 96.6147 95.3182 96.386 95.1689 96.19C95.0196 95.9847 94.8236 95.826 94.5809 95.714C94.3382 95.5927 94.0489 95.532 93.7129 95.532C93.1809 95.532 92.7889 95.6347 92.5369 95.84C92.2849 96.0453 92.1589 96.3067 92.1589 96.624C92.1589 96.8667 92.2149 97.0673 92.3269 97.226C92.4482 97.3753 92.6396 97.5013 92.9009 97.604C93.1622 97.6973 93.5122 97.7813 93.9509 97.856C94.7069 97.9867 95.2949 98.1453 95.7149 98.332C96.1349 98.5187 96.4289 98.7473 96.5969 99.018C96.7649 99.2887 96.8489 99.62 96.8489 100.012C96.8489 100.469 96.7182 100.861 96.4569 101.188C96.2049 101.505 95.8596 101.748 95.4209 101.916C94.9916 102.084 94.5016 102.168 93.9509 102.168ZM101.156 102.168C100.493 102.168 99.9287 102.061 99.462 101.846C99.0047 101.631 98.6453 101.337 98.384 100.964C98.132 100.581 97.9873 100.147 97.95 99.662L99.182 99.578C99.2567 100.026 99.448 100.385 99.756 100.656C100.064 100.917 100.531 101.048 101.156 101.048C101.66 101.048 102.061 100.969 102.36 100.81C102.668 100.642 102.822 100.376 102.822 100.012C102.822 99.816 102.775 99.6527 102.682 99.522C102.589 99.3913 102.407 99.2793 102.136 99.186C101.865 99.0833 101.464 98.9853 100.932 98.892C100.223 98.7613 99.6627 98.6027 99.252 98.416C98.8507 98.22 98.5613 97.982 98.384 97.702C98.216 97.4127 98.132 97.072 98.132 96.68C98.132 96.0173 98.3747 95.476 98.86 95.056C99.3453 94.6267 100.036 94.412 100.932 94.412C101.539 94.412 102.047 94.524 102.458 94.748C102.878 94.9627 103.205 95.252 103.438 95.616C103.681 95.9707 103.839 96.3627 103.914 96.792L102.682 96.876C102.626 96.6147 102.523 96.386 102.374 96.19C102.225 95.9847 102.029 95.826 101.786 95.714C101.543 95.5927 101.254 95.532 100.918 95.532C100.386 95.532 99.994 95.6347 99.742 95.84C99.49 96.0453 99.364 96.3067 99.364 96.624C99.364 96.8667 99.42 97.0673 99.532 97.226C99.6533 97.3753 99.8447 97.5013 100.106 97.604C100.367 97.6973 100.717 97.7813 101.156 97.856C101.912 97.9867 102.5 98.1453 102.92 98.332C103.34 98.5187 103.634 98.7473 103.802 99.018C103.97 99.2887 104.054 99.62 104.054 100.012C104.054 100.469 103.923 100.861 103.662 101.188C103.41 101.505 103.065 101.748 102.626 101.916C102.197 102.084 101.707 102.168 101.156 102.168ZM108.095 102.168C107.358 102.168 106.765 101.921 106.317 101.426C105.878 100.922 105.659 100.231 105.659 99.354V94.58H106.835V99.032C106.835 99.7507 106.961 100.283 107.213 100.628C107.474 100.964 107.871 101.132 108.403 101.132C108.991 101.132 109.453 100.945 109.789 100.572C110.125 100.189 110.293 99.6667 110.293 99.004V94.58H111.469V102H110.349V100.166L110.531 100.264C110.382 100.871 110.097 101.342 109.677 101.678C109.257 102.005 108.73 102.168 108.095 102.168ZM116.473 102.168C115.773 102.168 115.166 102.009 114.653 101.692C114.149 101.375 113.757 100.927 113.477 100.348C113.206 99.76 113.071 99.074 113.071 98.29C113.071 97.506 113.206 96.8247 113.477 96.246C113.757 95.6673 114.144 95.2193 114.639 94.902C115.143 94.5753 115.736 94.412 116.417 94.412C117.061 94.412 117.63 94.566 118.125 94.874C118.62 95.1727 119.002 95.6113 119.273 96.19C119.553 96.7687 119.693 97.4733 119.693 98.304V98.654H114.303C114.35 99.4473 114.56 100.045 114.933 100.446C115.316 100.847 115.829 101.048 116.473 101.048C116.958 101.048 117.355 100.936 117.663 100.712C117.98 100.479 118.2 100.175 118.321 99.802L119.581 99.9C119.385 100.563 119.012 101.109 118.461 101.538C117.92 101.958 117.257 102.168 116.473 102.168ZM114.303 97.618H118.405C118.349 96.8993 118.139 96.372 117.775 96.036C117.42 95.7 116.968 95.532 116.417 95.532C115.848 95.532 115.376 95.7093 115.003 96.064C114.639 96.4093 114.406 96.9273 114.303 97.618ZM123.988 102.168C123.325 102.168 122.761 102.061 122.294 101.846C121.837 101.631 121.477 101.337 121.216 100.964C120.964 100.581 120.819 100.147 120.782 99.662L122.014 99.578C122.089 100.026 122.28 100.385 122.588 100.656C122.896 100.917 123.363 101.048 123.988 101.048C124.492 101.048 124.893 100.969 125.192 100.81C125.5 100.642 125.654 100.376 125.654 100.012C125.654 99.816 125.607 99.6527 125.514 99.522C125.421 99.3913 125.239 99.2793 124.968 99.186C124.697 99.0833 124.296 98.9853 123.764 98.892C123.055 98.7613 122.495 98.6027 122.084 98.416C121.683 98.22 121.393 97.982 121.216 97.702C121.048 97.4127 120.964 97.072 120.964 96.68C120.964 96.0173 121.207 95.476 121.692 95.056C122.177 94.6267 122.868 94.412 123.764 94.412C124.371 94.412 124.879 94.524 125.29 94.748C125.71 94.9627 126.037 95.252 126.27 95.616C126.513 95.9707 126.671 96.3627 126.746 96.792L125.514 96.876C125.458 96.6147 125.355 96.386 125.206 96.19C125.057 95.9847 124.861 95.826 124.618 95.714C124.375 95.5927 124.086 95.532 123.75 95.532C123.218 95.532 122.826 95.6347 122.574 95.84C122.322 96.0453 122.196 96.3067 122.196 96.624C122.196 96.8667 122.252 97.0673 122.364 97.226C122.485 97.3753 122.677 97.5013 122.938 97.604C123.199 97.6973 123.549 97.7813 123.988 97.856C124.744 97.9867 125.332 98.1453 125.752 98.332C126.172 98.5187 126.466 98.7473 126.634 99.018C126.802 99.2887 126.886 99.62 126.886 100.012C126.886 100.469 126.755 100.861 126.494 101.188C126.242 101.505 125.897 101.748 125.458 101.916C125.029 102.084 124.539 102.168 123.988 102.168Z" fill="#EDEDED"/>
<path d="M298.292 102V92.06H301.862C302.973 92.06 303.836 92.326 304.452 92.858C305.068 93.39 305.376 94.1273 305.376 95.07C305.376 95.7047 305.236 96.2553 304.956 96.722C304.676 97.1793 304.275 97.5293 303.752 97.772C303.229 98.0147 302.599 98.136 301.862 98.136H299.496V102H298.292ZM299.496 96.96H301.862C302.609 96.96 303.169 96.8013 303.542 96.484C303.925 96.1667 304.116 95.6953 304.116 95.07C304.116 94.4633 303.925 94.006 303.542 93.698C303.169 93.39 302.609 93.236 301.862 93.236H299.496V96.96ZM309.242 102.168C308.504 102.168 307.912 101.921 307.464 101.426C307.025 100.922 306.806 100.231 306.806 99.354V94.58H307.982V99.032C307.982 99.7507 308.108 100.283 308.36 100.628C308.621 100.964 309.018 101.132 309.55 101.132C310.138 101.132 310.6 100.945 310.936 100.572C311.272 100.189 311.44 99.6667 311.44 99.004V94.58H312.616V102H311.496V100.166L311.678 100.264C311.528 100.871 311.244 101.342 310.824 101.678C310.404 102.005 309.876 102.168 309.242 102.168ZM316.314 102C315.885 102 315.535 101.888 315.264 101.664C314.994 101.44 314.858 101.085 314.858 100.6V92.06H316.034V100.502C316.034 100.651 316.072 100.768 316.146 100.852C316.23 100.927 316.347 100.964 316.496 100.964H317.14V102H316.314ZM319.91 102C319.481 102 319.131 101.888 318.86 101.664C318.589 101.44 318.454 101.085 318.454 100.6V92.06H319.63V100.502C319.63 100.651 319.667 100.768 319.742 100.852C319.826 100.927 319.943 100.964 320.092 100.964H320.736V102H319.91ZM325.854 102V92.06H329.62C330.32 92.06 330.922 92.1813 331.426 92.424C331.93 92.6667 332.318 93.0167 332.588 93.474C332.868 93.922 333.008 94.454 333.008 95.07C333.008 95.518 332.901 95.9193 332.686 96.274C332.481 96.6193 332.215 96.8947 331.888 97.1C331.562 97.3053 331.221 97.4173 330.866 97.436L330.782 97.31C331.389 97.31 331.865 97.45 332.21 97.73C332.565 98.01 332.77 98.458 332.826 99.074L333.106 102H331.888L331.636 99.2C331.599 98.7893 331.45 98.486 331.188 98.29C330.936 98.094 330.521 97.996 329.942 97.996H327.058V102H325.854ZM327.058 96.82H329.774C330.381 96.82 330.862 96.666 331.216 96.358C331.571 96.05 331.748 95.6113 331.748 95.042C331.748 94.4633 331.566 94.02 331.202 93.712C330.838 93.3947 330.311 93.236 329.62 93.236H327.058V96.82ZM337.827 102.168C337.127 102.168 336.52 102.009 336.007 101.692C335.503 101.375 335.111 100.927 334.831 100.348C334.56 99.76 334.425 99.074 334.425 98.29C334.425 97.506 334.56 96.8247 334.831 96.246C335.111 95.6673 335.498 95.2193 335.993 94.902C336.497 94.5753 337.089 94.412 337.771 94.412C338.415 94.412 338.984 94.566 339.479 94.874C339.973 95.1727 340.356 95.6113 340.627 96.19C340.907 96.7687 341.047 97.4733 341.047 98.304V98.654H335.657C335.703 99.4473 335.913 100.045 336.287 100.446C336.669 100.847 337.183 101.048 337.827 101.048C338.312 101.048 338.709 100.936 339.017 100.712C339.334 100.479 339.553 100.175 339.675 99.802L340.935 99.9C340.739 100.563 340.365 101.109 339.815 101.538C339.273 101.958 338.611 102.168 337.827 102.168ZM335.657 97.618H339.759C339.703 96.8993 339.493 96.372 339.129 96.036C338.774 95.7 338.321 95.532 337.771 95.532C337.201 95.532 336.73 95.7093 336.357 96.064C335.993 96.4093 335.759 96.9273 335.657 97.618ZM348.73 104.1H347.554V100.404L347.722 100.6C347.638 100.917 347.479 101.193 347.246 101.426C347.022 101.659 346.742 101.841 346.406 101.972C346.079 102.103 345.724 102.168 345.342 102.168C344.604 102.168 343.998 101.986 343.522 101.622C343.055 101.258 342.705 100.782 342.472 100.194C342.248 99.606 342.136 98.9713 342.136 98.29C342.136 97.6087 342.248 96.974 342.472 96.386C342.705 95.798 343.055 95.322 343.522 94.958C343.998 94.594 344.604 94.412 345.342 94.412C345.92 94.412 346.424 94.5567 346.854 94.846C347.292 95.126 347.6 95.5413 347.778 96.092L347.61 96.176L347.638 94.58H348.73V104.1ZM345.454 101.048C345.892 101.048 346.266 100.945 346.574 100.74C346.891 100.535 347.134 100.227 347.302 99.816C347.47 99.4053 347.554 98.8967 347.554 98.29C347.554 97.6833 347.465 97.1747 347.288 96.764C347.12 96.3533 346.877 96.0453 346.56 95.84C346.252 95.6347 345.883 95.532 345.454 95.532C344.81 95.532 344.301 95.7747 343.928 96.26C343.554 96.7453 343.368 97.422 343.368 98.29C343.368 99.158 343.554 99.8347 343.928 100.32C344.301 100.805 344.81 101.048 345.454 101.048ZM353.402 102.168C352.664 102.168 352.072 101.921 351.624 101.426C351.185 100.922 350.966 100.231 350.966 99.354V94.58H352.142V99.032C352.142 99.7507 352.268 100.283 352.52 100.628C352.781 100.964 353.178 101.132 353.71 101.132C354.298 101.132 354.76 100.945 355.096 100.572C355.432 100.189 355.6 99.6667 355.6 99.004V94.58H356.776V102H355.656V100.166L355.838 100.264C355.688 100.871 355.404 101.342 354.984 101.678C354.564 102.005 354.036 102.168 353.402 102.168ZM361.78 102.168C361.08 102.168 360.473 102.009 359.96 101.692C359.456 101.375 359.064 100.927 358.784 100.348C358.513 99.76 358.378 99.074 358.378 98.29C358.378 97.506 358.513 96.8247 358.784 96.246C359.064 95.6673 359.451 95.2193 359.946 94.902C360.45 94.5753 361.042 94.412 361.724 94.412C362.368 94.412 362.937 94.566 363.432 94.874C363.926 95.1727 364.309 95.6113 364.58 96.19C364.86 96.7687 365 97.4733 365 98.304V98.654H359.61C359.656 99.4473 359.866 100.045 360.24 100.446C360.622 100.847 361.136 101.048 361.78 101.048C362.265 101.048 362.662 100.936 362.97 100.712C363.287 100.479 363.506 100.175 363.628 99.802L364.888 99.9C364.692 100.563 364.318 101.109 363.768 101.538C363.226 101.958 362.564 102.168 361.78 102.168ZM359.61 97.618H363.712C363.656 96.8993 363.446 96.372 363.082 96.036C362.727 95.7 362.274 95.532 361.724 95.532C361.154 95.532 360.683 95.7093 360.31 96.064C359.946 96.4093 359.712 96.9273 359.61 97.618ZM369.295 102.168C368.632 102.168 368.067 102.061 367.601 101.846C367.143 101.631 366.784 101.337 366.523 100.964C366.271 100.581 366.126 100.147 366.089 99.662L367.321 99.578C367.395 100.026 367.587 100.385 367.895 100.656C368.203 100.917 368.669 101.048 369.295 101.048C369.799 101.048 370.2 100.969 370.499 100.81C370.807 100.642 370.961 100.376 370.961 100.012C370.961 99.816 370.914 99.6527 370.821 99.522C370.727 99.3913 370.545 99.2793 370.275 99.186C370.004 99.0833 369.603 98.9853 369.071 98.892C368.361 98.7613 367.801 98.6027 367.391 98.416C366.989 98.22 366.7 97.982 366.523 97.702C366.355 97.4127 366.271 97.072 366.271 96.68C366.271 96.0173 366.513 95.476 366.999 95.056C367.484 94.6267 368.175 94.412 369.071 94.412C369.677 94.412 370.186 94.524 370.597 94.748C371.017 94.9627 371.343 95.252 371.577 95.616C371.819 95.9707 371.978 96.3627 372.053 96.792L370.821 96.876C370.765 96.6147 370.662 96.386 370.513 96.19C370.363 95.9847 370.167 95.826 369.925 95.714C369.682 95.5927 369.393 95.532 369.057 95.532C368.525 95.532 368.133 95.6347 367.881 95.84C367.629 96.0453 367.503 96.3067 367.503 96.624C367.503 96.8667 367.559 97.0673 367.671 97.226C367.792 97.3753 367.983 97.5013 368.245 97.604C368.506 97.6973 368.856 97.7813 369.295 97.856C370.051 97.9867 370.639 98.1453 371.059 98.332C371.479 98.5187 371.773 98.7473 371.941 99.018C372.109 99.2887 372.193 99.62 372.193 100.012C372.193 100.469 372.062 100.861 371.801 101.188C371.549 101.505 371.203 101.748 370.765 101.916C370.335 102.084 369.845 102.168 369.295 102.168ZM376.227 102C375.555 102 375.055 101.846 374.729 101.538C374.411 101.23 374.253 100.749 374.253 100.096V92.844H375.429V100.068C375.429 100.404 375.503 100.637 375.653 100.768C375.802 100.899 376.031 100.964 376.339 100.964H377.403V102H376.227ZM373.161 95.616V94.58H377.403V95.616H373.161ZM381.476 102.168C380.814 102.168 380.249 102.061 379.782 101.846C379.325 101.631 378.966 101.337 378.704 100.964C378.452 100.581 378.308 100.147 378.27 99.662L379.502 99.578C379.577 100.026 379.768 100.385 380.076 100.656C380.384 100.917 380.851 101.048 381.476 101.048C381.98 101.048 382.382 100.969 382.68 100.81C382.988 100.642 383.142 100.376 383.142 100.012C383.142 99.816 383.096 99.6527 383.002 99.522C382.909 99.3913 382.727 99.2793 382.456 99.186C382.186 99.0833 381.784 98.9853 381.252 98.892C380.543 98.7613 379.983 98.6027 379.572 98.416C379.171 98.22 378.882 97.982 378.704 97.702C378.536 97.4127 378.452 97.072 378.452 96.68C378.452 96.0173 378.695 95.476 379.18 95.056C379.666 94.6267 380.356 94.412 381.252 94.412C381.859 94.412 382.368 94.524 382.778 94.748C383.198 94.9627 383.525 95.252 383.758 95.616C384.001 95.9707 384.16 96.3627 384.234 96.792L383.002 96.876C382.946 96.6147 382.844 96.386 382.694 96.19C382.545 95.9847 382.349 95.826 382.106 95.714C381.864 95.5927 381.574 95.532 381.238 95.532C380.706 95.532 380.314 95.6347 380.062 95.84C379.81 96.0453 379.684 96.3067 379.684 96.624C379.684 96.8667 379.74 97.0673 379.852 97.226C379.974 97.3753 380.165 97.5013 380.426 97.604C380.688 97.6973 381.038 97.7813 381.476 97.856C382.232 97.9867 382.82 98.1453 383.24 98.332C383.66 98.5187 383.954 98.7473 384.122 99.018C384.29 99.2887 384.374 99.62 384.374 100.012C384.374 100.469 384.244 100.861 383.982 101.188C383.73 101.505 383.385 101.748 382.946 101.916C382.517 102.084 382.027 102.168 381.476 102.168Z" fill="#BDBDBD"/>
<rect x="9" y="121" width="464" height="52" rx="6" fill="#151514"/>
<g clip-path="url(#clip1_4_56)">
<path d="M23.7333 130.455C24.57 130.293 25.43 130.293 26.2667 130.455" stroke="#FFA724" stroke-width="2" stroke-linecap="round" stroke-linejoin="round"/>
<path d="M26.2667 143.545C25.43 143.707 24.57 143.707 23.7333 143.545" stroke="#FFA724" stroke-width="2" stroke-linecap="round" stroke-linejoin="round"/>
<path d="M28.7393 131.481C29.447 131.96 30.0558 132.571 30.5327 133.281" stroke="#FFA724" stroke-width="2" stroke-linecap="round" stroke-linejoin="round"/>
<path d="M18.4547 138.267C18.2928 137.43 18.2928 136.57 18.4547 135.733" stroke="#FFA724" stroke-width="2" stroke-linecap="round" stroke-linejoin="round"/>
<path d="M30.5194 140.739C30.0399 141.447 29.4288 142.056 28.7194 142.533" stroke="#FFA724" stroke-width="2" stroke-linecap="round" stroke-linejoin="round"/>
<path d="M31.5453 135.733C31.7073 136.57 31.7073 137.43 31.5453 138.267" stroke="#FFA724" stroke-width="2" stroke-linecap="round" stroke-linejoin="round"/>
<path d="M19.4807 133.261C19.9601 132.553 20.5712 131.944 21.2807 131.467" stroke="#FFA724" stroke-width="2" stroke-linecap="round" stroke-linejoin="round"/>
<path d="M21.2607 142.519C20.553 142.04 19.9442 141.429 19.4673 140.719" stroke="#FFA724" stroke-width="2" stroke-linecap="round" stroke-linejoin="round"/>
</g>
<g clip-path="url(#clip2_4_56)">
<path d="M44.204 143V133.06H48.166C48.8753 133.06 49.4867 133.181 50 133.424C50.5133 133.667 50.91 134.012 51.19 134.46C51.47 134.908 51.61 135.44 51.61 136.056C51.61 136.504 51.5073 136.905 51.302 137.26C51.106 137.615 50.84 137.899 50.504 138.114C50.1773 138.319 49.8273 138.436 49.454 138.464L49.384 138.338C50.0093 138.338 50.4947 138.483 50.84 138.772C51.1853 139.052 51.386 139.495 51.442 140.102L51.708 143H50.182L49.944 140.298C49.916 139.897 49.7807 139.603 49.538 139.416C49.2953 139.22 48.8987 139.122 48.348 139.122H45.716V143H44.204ZM45.716 137.736H48.194C48.7633 137.736 49.2113 137.596 49.538 137.316C49.874 137.027 50.042 136.621 50.042 136.098C50.042 135.566 49.874 135.16 49.538 134.88C49.202 134.591 48.712 134.446 48.068 134.446H45.716V137.736ZM56.4402 143.168C55.7122 143.168 55.0822 143.009 54.5502 142.692C54.0276 142.375 53.6216 141.922 53.3322 141.334C53.0522 140.746 52.9122 140.06 52.9122 139.276C52.9122 138.492 53.0522 137.811 53.3322 137.232C53.6216 136.644 54.0276 136.191 54.5502 135.874C55.0729 135.547 55.6889 135.384 56.3982 135.384C57.0702 135.384 57.6629 135.543 58.1762 135.86C58.6896 136.168 59.0862 136.616 59.3662 137.204C59.6556 137.792 59.8002 138.501 59.8002 139.332V139.71H54.4522C54.4896 140.438 54.6809 140.984 55.0262 141.348C55.3809 141.712 55.8569 141.894 56.4542 141.894C56.8929 141.894 57.2569 141.791 57.5462 141.586C57.8356 141.381 58.0362 141.105 58.1482 140.76L59.6882 140.858C59.4922 141.549 59.1049 142.109 58.5262 142.538C57.9569 142.958 57.2616 143.168 56.4402 143.168ZM54.4522 138.59H58.2322C58.1856 137.927 57.9942 137.437 57.6582 137.12C57.3316 136.803 56.9116 136.644 56.3982 136.644C55.8662 136.644 55.4276 136.812 55.0822 137.148C54.7462 137.475 54.5362 137.955 54.4522 138.59ZM62.5975 143L60.3295 135.552H61.8835L63.4795 141.376L65.1175 135.552H66.5175L68.1555 141.376L69.7655 135.552H71.3195L69.0515 143H67.3855L65.8175 137.68L64.2495 143H62.5975ZM75.3621 143.168C74.6528 143.168 74.0321 143.009 73.5001 142.692C72.9681 142.375 72.5574 141.922 72.2681 141.334C71.9788 140.746 71.8341 140.06 71.8341 139.276C71.8341 138.483 71.9788 137.797 72.2681 137.218C72.5574 136.639 72.9681 136.191 73.5001 135.874C74.0321 135.547 74.6528 135.384 75.3621 135.384C76.0714 135.384 76.6921 135.547 77.2241 135.874C77.7561 136.191 78.1668 136.639 78.4561 137.218C78.7454 137.797 78.8901 138.483 78.8901 139.276C78.8901 140.06 78.7454 140.746 78.4561 141.334C78.1668 141.922 77.7561 142.375 77.2241 142.692C76.6921 143.009 76.0714 143.168 75.3621 143.168ZM75.3621 141.88C75.9968 141.88 76.4868 141.651 76.8321 141.194C77.1774 140.727 77.3501 140.088 77.3501 139.276C77.3501 138.464 77.1774 137.829 76.8321 137.372C76.4868 136.905 75.9968 136.672 75.3621 136.672C74.7368 136.672 74.2468 136.905 73.8921 137.372C73.5468 137.829 73.3741 138.464 73.3741 139.276C73.3741 140.088 73.5468 140.727 73.8921 141.194C74.2468 141.651 74.7368 141.88 75.3621 141.88ZM80.3898 143V135.552H81.7478L81.8038 137.526L81.6778 137.484C81.7805 136.812 81.9858 136.322 82.2938 136.014C82.6112 135.706 83.0358 135.552 83.5678 135.552H84.2818V136.882H83.5678C83.1945 136.882 82.8818 136.943 82.6298 137.064C82.3778 137.185 82.1865 137.372 82.0558 137.624C81.9345 137.876 81.8738 138.203 81.8738 138.604V143H80.3898ZM85.5031 143V133.06H86.9871V139.234L90.3331 135.552H92.2091L89.2971 138.688L92.3211 143H90.6131L88.3031 139.612L86.9871 141.012V143H85.5031ZM99.0627 143C98.5773 143 98.1853 142.874 97.8867 142.622C97.588 142.37 97.4387 141.969 97.4387 141.418V133.06H98.9227V141.278C98.9227 141.446 98.9647 141.572 99.0487 141.656C99.142 141.74 99.2727 141.782 99.4407 141.782H100.029V143H99.0627ZM103.462 143.168C102.688 143.168 102.067 142.991 101.6 142.636C101.143 142.281 100.914 141.782 100.914 141.138C100.914 140.494 101.106 139.995 101.488 139.64C101.88 139.276 102.482 139.015 103.294 138.856L105.856 138.366C105.856 137.787 105.721 137.358 105.45 137.078C105.18 136.789 104.778 136.644 104.246 136.644C103.77 136.644 103.397 136.751 103.126 136.966C102.856 137.171 102.669 137.479 102.566 137.89L101.04 137.792C101.18 137.045 101.526 136.457 102.076 136.028C102.636 135.599 103.36 135.384 104.246 135.384C105.254 135.384 106.02 135.655 106.542 136.196C107.074 136.728 107.34 137.479 107.34 138.45V141.348C107.34 141.525 107.368 141.651 107.424 141.726C107.49 141.791 107.592 141.824 107.732 141.824H107.998V143C107.952 143.009 107.877 143.019 107.774 143.028C107.672 143.037 107.564 143.042 107.452 143.042C107.135 143.042 106.86 142.991 106.626 142.888C106.402 142.785 106.234 142.617 106.122 142.384C106.01 142.141 105.954 141.819 105.954 141.418L106.108 141.488C106.034 141.815 105.87 142.104 105.618 142.356C105.376 142.608 105.063 142.809 104.68 142.958C104.307 143.098 103.901 143.168 103.462 143.168ZM103.7 141.992C104.148 141.992 104.531 141.908 104.848 141.74C105.166 141.563 105.413 141.32 105.59 141.012C105.768 140.704 105.856 140.354 105.856 139.962V139.486L103.672 139.906C103.224 139.99 102.907 140.125 102.72 140.312C102.543 140.489 102.454 140.718 102.454 140.998C102.454 141.315 102.562 141.563 102.776 141.74C103 141.908 103.308 141.992 103.7 141.992ZM109.251 143V135.552H110.609L110.665 137.54L110.483 137.442C110.567 136.957 110.726 136.565 110.959 136.266C111.193 135.967 111.477 135.748 111.813 135.608C112.149 135.459 112.513 135.384 112.905 135.384C113.465 135.384 113.927 135.51 114.291 135.762C114.665 136.005 114.945 136.341 115.131 136.77C115.327 137.19 115.425 137.671 115.425 138.212V143H113.941V138.66C113.941 138.221 113.895 137.853 113.801 137.554C113.708 137.255 113.554 137.027 113.339 136.868C113.125 136.709 112.845 136.63 112.499 136.63C111.977 136.63 111.552 136.803 111.225 137.148C110.899 137.493 110.735 137.997 110.735 138.66V143H109.251ZM120.005 143.168C119.37 143.168 118.815 143.009 118.339 142.692C117.872 142.375 117.513 141.927 117.261 141.348C117.018 140.76 116.897 140.069 116.897 139.276C116.897 138.483 117.023 137.797 117.275 137.218C117.527 136.63 117.886 136.177 118.353 135.86C118.819 135.543 119.37 135.384 120.005 135.384C120.518 135.384 120.975 135.491 121.377 135.706C121.778 135.921 122.081 136.219 122.287 136.602V133.06H123.771V143H122.385L122.343 141.88C122.137 142.281 121.825 142.599 121.405 142.832C120.994 143.056 120.527 143.168 120.005 143.168ZM120.397 141.88C120.798 141.88 121.139 141.777 121.419 141.572C121.699 141.367 121.913 141.068 122.063 140.676C122.212 140.284 122.287 139.817 122.287 139.276C122.287 138.716 122.212 138.245 122.063 137.862C121.913 137.47 121.699 137.176 121.419 136.98C121.139 136.775 120.798 136.672 120.397 136.672C119.799 136.672 119.323 136.905 118.969 137.372C118.614 137.829 118.437 138.464 118.437 139.276C118.437 140.079 118.614 140.713 118.969 141.18C119.323 141.647 119.799 141.88 120.397 141.88ZM125.63 143V135.552H127.114V143H125.63ZM125.602 134.474V132.99H127.142V134.474H125.602ZM129.335 143V135.552H130.693L130.749 137.54L130.567 137.442C130.651 136.957 130.81 136.565 131.043 136.266C131.276 135.967 131.561 135.748 131.897 135.608C132.233 135.459 132.597 135.384 132.989 135.384C133.549 135.384 134.011 135.51 134.375 135.762C134.748 136.005 135.028 136.341 135.215 136.77C135.411 137.19 135.509 137.671 135.509 138.212V143H134.025V138.66C134.025 138.221 133.978 137.853 133.885 137.554C133.792 137.255 133.638 137.027 133.423 136.868C133.208 136.709 132.928 136.63 132.583 136.63C132.06 136.63 131.636 136.803 131.309 137.148C130.982 137.493 130.819 137.997 130.819 138.66V143H129.335ZM140.439 145.268C139.851 145.268 139.333 145.179 138.885 145.002C138.437 144.825 138.068 144.573 137.779 144.246C137.489 143.929 137.293 143.555 137.191 143.126L138.731 143.028C138.833 143.336 139.011 143.579 139.263 143.756C139.524 143.943 139.916 144.036 140.439 144.036C141.055 144.036 141.526 143.905 141.853 143.644C142.189 143.383 142.357 142.986 142.357 142.454V141.376C142.179 141.759 141.895 142.062 141.503 142.286C141.111 142.51 140.672 142.622 140.187 142.622C139.561 142.622 139.006 142.468 138.521 142.16C138.035 141.852 137.657 141.427 137.387 140.886C137.116 140.345 136.981 139.719 136.981 139.01C136.981 138.291 137.111 137.661 137.373 137.12C137.643 136.579 138.017 136.154 138.493 135.846C138.978 135.538 139.524 135.384 140.131 135.384C140.663 135.384 141.129 135.505 141.531 135.748C141.941 135.991 142.235 136.317 142.413 136.728V135.552H143.841V142.412C143.841 143.028 143.701 143.546 143.421 143.966C143.15 144.395 142.758 144.717 142.245 144.932C141.741 145.156 141.139 145.268 140.439 145.268ZM140.425 141.362C141.003 141.362 141.465 141.152 141.811 140.732C142.165 140.312 142.347 139.733 142.357 138.996C142.366 138.511 142.291 138.095 142.133 137.75C141.974 137.395 141.745 137.125 141.447 136.938C141.157 136.742 140.817 136.644 140.425 136.644C139.818 136.644 139.347 136.859 139.011 137.288C138.684 137.708 138.521 138.277 138.521 138.996C138.521 139.724 138.689 140.303 139.025 140.732C139.37 141.152 139.837 141.362 140.425 141.362ZM149.351 145.1V135.552H150.751L150.793 137.148L150.625 137.064C150.811 136.513 151.119 136.098 151.549 135.818C151.978 135.529 152.473 135.384 153.033 135.384C153.761 135.384 154.358 135.566 154.825 135.93C155.301 136.285 155.651 136.756 155.875 137.344C156.108 137.932 156.225 138.576 156.225 139.276C156.225 139.976 156.108 140.62 155.875 141.208C155.651 141.796 155.301 142.272 154.825 142.636C154.358 142.991 153.761 143.168 153.033 143.168C152.659 143.168 152.309 143.103 151.983 142.972C151.656 142.841 151.376 142.659 151.143 142.426C150.919 142.183 150.76 141.899 150.667 141.572L150.835 141.404V145.1H149.351ZM152.767 141.88C153.364 141.88 153.831 141.651 154.167 141.194C154.512 140.737 154.685 140.097 154.685 139.276C154.685 138.455 154.512 137.815 154.167 137.358C153.831 136.901 153.364 136.672 152.767 136.672C152.375 136.672 152.034 136.77 151.745 136.966C151.455 137.153 151.231 137.442 151.073 137.834C150.914 138.226 150.835 138.707 150.835 139.276C150.835 139.845 150.909 140.326 151.059 140.718C151.217 141.11 151.441 141.404 151.731 141.6C152.029 141.787 152.375 141.88 152.767 141.88ZM159.968 143.168C159.193 143.168 158.573 142.991 158.106 142.636C157.649 142.281 157.42 141.782 157.42 141.138C157.42 140.494 157.611 139.995 157.994 139.64C158.386 139.276 158.988 139.015 159.8 138.856L162.362 138.366C162.362 137.787 162.227 137.358 161.956 137.078C161.685 136.789 161.284 136.644 160.752 136.644C160.276 136.644 159.903 136.751 159.632 136.966C159.361 137.171 159.175 137.479 159.072 137.89L157.546 137.792C157.686 137.045 158.031 136.457 158.582 136.028C159.142 135.599 159.865 135.384 160.752 135.384C161.76 135.384 162.525 135.655 163.048 136.196C163.58 136.728 163.846 137.479 163.846 138.45V141.348C163.846 141.525 163.874 141.651 163.93 141.726C163.995 141.791 164.098 141.824 164.238 141.824H164.504V143C164.457 143.009 164.383 143.019 164.28 143.028C164.177 143.037 164.07 143.042 163.958 143.042C163.641 143.042 163.365 142.991 163.132 142.888C162.908 142.785 162.74 142.617 162.628 142.384C162.516 142.141 162.46 141.819 162.46 141.418L162.614 141.488C162.539 141.815 162.376 142.104 162.124 142.356C161.881 142.608 161.569 142.809 161.186 142.958C160.813 143.098 160.407 143.168 159.968 143.168ZM160.206 141.992C160.654 141.992 161.037 141.908 161.354 141.74C161.671 141.563 161.919 141.32 162.096 141.012C162.273 140.704 162.362 140.354 162.362 139.962V139.486L160.178 139.906C159.73 139.99 159.413 140.125 159.226 140.312C159.049 140.489 158.96 140.718 158.96 140.998C158.96 141.315 159.067 141.563 159.282 141.74C159.506 141.908 159.814 141.992 160.206 141.992ZM168.698 145.268C168.11 145.268 167.592 145.179 167.144 145.002C166.696 144.825 166.328 144.573 166.038 144.246C165.749 143.929 165.553 143.555 165.45 143.126L166.99 143.028C167.093 143.336 167.27 143.579 167.522 143.756C167.784 143.943 168.176 144.036 168.698 144.036C169.314 144.036 169.786 143.905 170.112 143.644C170.448 143.383 170.616 142.986 170.616 142.454V141.376C170.439 141.759 170.154 142.062 169.762 142.286C169.37 142.51 168.932 142.622 168.446 142.622C167.821 142.622 167.266 142.468 166.78 142.16C166.295 141.852 165.917 141.427 165.646 140.886C165.376 140.345 165.24 139.719 165.24 139.01C165.24 138.291 165.371 137.661 165.632 137.12C165.903 136.579 166.276 136.154 166.752 135.846C167.238 135.538 167.784 135.384 168.39 135.384C168.922 135.384 169.389 135.505 169.79 135.748C170.201 135.991 170.495 136.317 170.672 136.728V135.552H172.1V142.412C172.1 143.028 171.96 143.546 171.68 143.966C171.41 144.395 171.018 144.717 170.504 144.932C170 145.156 169.398 145.268 168.698 145.268ZM168.684 141.362C169.263 141.362 169.725 141.152 170.07 140.732C170.425 140.312 170.607 139.733 170.616 138.996C170.626 138.511 170.551 138.095 170.392 137.75C170.234 137.395 170.005 137.125 169.706 136.938C169.417 136.742 169.076 136.644 168.684 136.644C168.078 136.644 167.606 136.859 167.27 137.288C166.944 137.708 166.78 138.277 166.78 138.996C166.78 139.724 166.948 140.303 167.284 140.732C167.63 141.152 168.096 141.362 168.684 141.362ZM177.136 143.168C176.408 143.168 175.778 143.009 175.246 142.692C174.723 142.375 174.317 141.922 174.028 141.334C173.748 140.746 173.608 140.06 173.608 139.276C173.608 138.492 173.748 137.811 174.028 137.232C174.317 136.644 174.723 136.191 175.246 135.874C175.768 135.547 176.384 135.384 177.094 135.384C177.766 135.384 178.358 135.543 178.872 135.86C179.385 136.168 179.782 136.616 180.062 137.204C180.351 137.792 180.496 138.501 180.496 139.332V139.71H175.148C175.185 140.438 175.376 140.984 175.722 141.348C176.076 141.712 176.552 141.894 177.15 141.894C177.588 141.894 177.952 141.791 178.242 141.586C178.531 141.381 178.732 141.105 178.844 140.76L180.384 140.858C180.188 141.549 179.8 142.109 179.222 142.538C178.652 142.958 177.957 143.168 177.136 143.168ZM175.148 138.59H178.928C178.881 137.927 178.69 137.437 178.354 137.12C178.027 136.803 177.607 136.644 177.094 136.644C176.562 136.644 176.123 136.812 175.778 137.148C175.442 137.475 175.232 137.955 175.148 138.59Z" fill="white"/>
<g clip-path="url(#clip3_4_56)">
<path d="M46.5 157.167L47.375 155.475C47.4701 155.286 47.6148 155.127 47.7936 155.014C47.9724 154.901 48.1786 154.838 48.39 154.833H54.6667M54.6667 154.833C54.8449 154.833 55.0208 154.874 55.181 154.952C55.3411 155.03 55.4812 155.144 55.5904 155.285C55.6997 155.426 55.7753 155.59 55.8113 155.764C55.8473 155.939 55.8429 156.119 55.7984 156.292L54.9 159.792C54.835 160.043 54.6878 160.266 54.4817 160.425C54.2756 160.583 54.0225 160.668 53.7625 160.667H45.3334C45.0239 160.667 44.7272 160.544 44.5084 160.325C44.2896 160.106 44.1667 159.809 44.1667 159.5V151.917C44.1667 151.607 44.2896 151.31 44.5084 151.092C44.7272 150.873 45.0239 150.75 45.3334 150.75H47.6084C47.8035 150.748 47.996 150.795 48.1682 150.887C48.3404 150.979 48.4869 151.112 48.5942 151.275L49.0667 151.975C49.1729 152.136 49.3175 152.269 49.4876 152.36C49.6576 152.452 49.8477 152.5 50.0409 152.5H53.5C53.8094 152.5 54.1062 152.623 54.325 152.842C54.5438 153.06 54.6667 153.357 54.6667 153.667V154.833Z" stroke="#BDBDBD" stroke-width="2" stroke-linecap="round" stroke-linejoin="round"/>
<path d="M64.032 160V151.48H67.212C68.188 151.48 68.948 151.716 69.492 152.188C70.036 152.652 70.308 153.3 70.308 154.132C70.308 154.684 70.184 155.164 69.936 155.572C69.688 155.972 69.332 156.28 68.868 156.496C68.412 156.704 67.86 156.808 67.212 156.808H65.328V160H64.032ZM65.328 155.632H67.176C67.76 155.632 68.204 155.508 68.508 155.26C68.812 155.004 68.964 154.628 68.964 154.132C68.964 153.644 68.812 153.28 68.508 153.04C68.204 152.792 67.76 152.668 67.176 152.668H65.328V155.632ZM71.6813 160V153.616H72.8453L72.8933 155.308L72.7853 155.272C72.8733 154.696 73.0493 154.276 73.3133 154.012C73.5853 153.748 73.9493 153.616 74.4053 153.616H75.0173V154.756H74.4053C74.0853 154.756 73.8173 154.808 73.6013 154.912C73.3853 155.016 73.2213 155.176 73.1093 155.392C73.0053 155.608 72.9533 155.888 72.9533 156.232V160H71.6813ZM78.5514 160.144C77.9434 160.144 77.4114 160.008 76.9554 159.736C76.4994 159.464 76.1474 159.076 75.8994 158.572C75.6514 158.068 75.5274 157.48 75.5274 156.808C75.5274 156.128 75.6514 155.54 75.8994 155.044C76.1474 154.548 76.4994 154.164 76.9554 153.892C77.4114 153.612 77.9434 153.472 78.5514 153.472C79.1594 153.472 79.6914 153.612 80.1474 153.892C80.6034 154.164 80.9554 154.548 81.2034 155.044C81.4514 155.54 81.5754 156.128 81.5754 156.808C81.5754 157.48 81.4514 158.068 81.2034 158.572C80.9554 159.076 80.6034 159.464 80.1474 159.736C79.6914 160.008 79.1594 160.144 78.5514 160.144ZM78.5514 159.04C79.0954 159.04 79.5154 158.844 79.8114 158.452C80.1074 158.052 80.2554 157.504 80.2554 156.808C80.2554 156.112 80.1074 155.568 79.8114 155.176C79.5154 154.776 79.0954 154.576 78.5514 154.576C78.0154 154.576 77.5954 154.776 77.2914 155.176C76.9954 155.568 76.8474 156.112 76.8474 156.808C76.8474 157.504 76.9954 158.052 77.2914 158.452C77.5954 158.844 78.0154 159.04 78.5514 159.04ZM81.8192 161.8V160.756H82.3952C82.6112 160.756 82.7792 160.708 82.8992 160.612C83.0272 160.516 83.0912 160.332 83.0912 160.06V153.616H84.3752V160.108C84.3752 160.716 84.2352 161.148 83.9552 161.404C83.6832 161.668 83.2272 161.8 82.5872 161.8H81.8192ZM83.0792 152.692V151.42H84.3992V152.692H83.0792ZM88.6882 160.144C88.0642 160.144 87.5242 160.008 87.0682 159.736C86.6202 159.464 86.2722 159.076 86.0242 158.572C85.7842 158.068 85.6642 157.48 85.6642 156.808C85.6642 156.136 85.7842 155.552 86.0242 155.056C86.2722 154.552 86.6202 154.164 87.0682 153.892C87.5162 153.612 88.0442 153.472 88.6522 153.472C89.2282 153.472 89.7362 153.608 90.1762 153.88C90.6162 154.144 90.9562 154.528 91.1962 155.032C91.4442 155.536 91.5682 156.144 91.5682 156.856V157.18H86.9842C87.0162 157.804 87.1802 158.272 87.4762 158.584C87.7802 158.896 88.1882 159.052 88.7002 159.052C89.0762 159.052 89.3882 158.964 89.6362 158.788C89.8842 158.612 90.0562 158.376 90.1522 158.08L91.4722 158.164C91.3042 158.756 90.9722 159.236 90.4762 159.604C89.9882 159.964 89.3922 160.144 88.6882 160.144ZM86.9842 156.22H90.2242C90.1842 155.652 90.0202 155.232 89.7322 154.96C89.4522 154.688 89.0922 154.552 88.6522 154.552C88.1962 154.552 87.8202 154.696 87.5242 154.984C87.2362 155.264 87.0562 155.676 86.9842 156.22ZM95.485 160.144C94.877 160.144 94.345 160.008 93.889 159.736C93.433 159.464 93.081 159.076 92.833 158.572C92.585 158.068 92.461 157.48 92.461 156.808C92.461 156.136 92.585 155.552 92.833 155.056C93.081 154.552 93.433 154.164 93.889 153.892C94.345 153.612 94.877 153.472 95.485 153.472C96.005 153.472 96.465 153.564 96.865 153.748C97.273 153.924 97.601 154.184 97.849 154.528C98.105 154.872 98.269 155.292 98.341 155.788L97.009 155.86C96.945 155.444 96.777 155.128 96.505 154.912C96.233 154.688 95.893 154.576 95.485 154.576C94.949 154.576 94.529 154.776 94.225 155.176C93.929 155.568 93.781 156.112 93.781 156.808C93.781 157.504 93.929 158.052 94.225 158.452C94.529 158.844 94.949 159.04 95.485 159.04C95.893 159.04 96.233 158.928 96.505 158.704C96.777 158.472 96.945 158.124 97.009 157.66L98.341 157.732C98.269 158.22 98.105 158.644 97.849 159.004C97.601 159.364 97.273 159.644 96.865 159.844C96.465 160.044 96.005 160.144 95.485 160.144ZM101.715 160C101.107 160 100.659 159.86 100.371 159.58C100.083 159.3 99.9392 158.864 99.9392 158.272V152.116H101.211V158.176C101.211 158.472 101.275 158.676 101.403 158.788C101.531 158.9 101.727 158.956 101.991 158.956H102.903V160H101.715ZM98.9672 154.66V153.616H102.903V154.66H98.9672ZM106.375 160L109.207 155.728L106.399 151.48H107.923L110.023 154.72L112.087 151.48H113.599L110.791 155.704L113.635 160H112.111L109.999 156.712L107.887 160H106.375Z" fill="#BDBDBD"/>
</g>
</g>
<path d="M393.576 160C393.576 159.368 393.668 158.804 393.852 158.308C394.036 157.812 394.36 157.348 394.824 156.916C395.296 156.476 395.948 156.036 396.78 155.596C397.14 155.412 397.432 155.236 397.656 155.068C397.88 154.9 398.044 154.72 398.148 154.528C398.252 154.336 398.304 154.104 398.304 153.832C398.304 153.552 398.248 153.312 398.136 153.112C398.024 152.912 397.856 152.756 397.632 152.644C397.408 152.524 397.128 152.464 396.792 152.464C396.248 152.464 395.82 152.608 395.508 152.896C395.204 153.184 395.012 153.596 394.932 154.132L393.624 154.048C393.712 153.208 394.028 152.54 394.572 152.044C395.116 151.54 395.856 151.288 396.792 151.288C397.4 151.288 397.912 151.392 398.328 151.6C398.752 151.808 399.072 152.1 399.288 152.476C399.504 152.852 399.612 153.288 399.612 153.784C399.612 154.224 399.54 154.604 399.396 154.924C399.252 155.244 399.012 155.54 398.676 155.812C398.34 156.084 397.88 156.376 397.296 156.688C396.808 156.952 396.4 157.212 396.072 157.468C395.752 157.716 395.508 157.956 395.34 158.188C395.18 158.412 395.092 158.62 395.076 158.812H399.624V160H393.576ZM401.683 158.728L404.947 152.692L405.907 152.752L402.643 158.788L401.683 158.728ZM403.795 160.192C403.171 160.192 402.631 160.012 402.175 159.652C401.719 159.292 401.371 158.78 401.131 158.116C400.891 157.452 400.771 156.664 400.771 155.752C400.771 154.832 400.891 154.04 401.131 153.376C401.371 152.712 401.719 152.2 402.175 151.84C402.631 151.472 403.171 151.288 403.795 151.288C404.427 151.288 404.967 151.472 405.415 151.84C405.871 152.2 406.219 152.712 406.459 153.376C406.699 154.04 406.819 154.832 406.819 155.752C406.819 156.664 406.699 157.452 406.459 158.116C406.219 158.78 405.871 159.292 405.415 159.652C404.967 160.012 404.427 160.192 403.795 160.192ZM403.795 159.016C404.155 159.016 404.459 158.888 404.707 158.632C404.963 158.368 405.159 157.992 405.295 157.504C405.439 157.016 405.511 156.432 405.511 155.752C405.511 155.056 405.439 154.464 405.295 153.976C405.159 153.488 404.963 153.116 404.707 152.86C404.459 152.596 404.155 152.464 403.795 152.464C403.443 152.464 403.139 152.596 402.883 152.86C402.627 153.116 402.427 153.488 402.283 153.976C402.147 154.464 402.079 155.056 402.079 155.752C402.079 156.432 402.147 157.016 402.283 157.504C402.427 157.992 402.627 158.368 402.883 158.632C403.139 158.888 403.443 159.016 403.795 159.016ZM410.175 160V158.416H411.807V160H410.175ZM416.074 158.728L419.338 152.692L420.298 152.752L417.034 158.788L416.074 158.728ZM418.186 160.192C417.562 160.192 417.022 160.012 416.566 159.652C416.11 159.292 415.762 158.78 415.522 158.116C415.282 157.452 415.162 156.664 415.162 155.752C415.162 154.832 415.282 154.04 415.522 153.376C415.762 152.712 416.11 152.2 416.566 151.84C417.022 151.472 417.562 151.288 418.186 151.288C418.818 151.288 419.358 151.472 419.806 151.84C420.262 152.2 420.61 152.712 420.85 153.376C421.09 154.04 421.21 154.832 421.21 155.752C421.21 156.664 421.09 157.452 420.85 158.116C420.61 158.78 420.262 159.292 419.806 159.652C419.358 160.012 418.818 160.192 418.186 160.192ZM418.186 159.016C418.546 159.016 418.85 158.888 419.098 158.632C419.354 158.368 419.55 157.992 419.686 157.504C419.83 157.016 419.902 156.432 419.902 155.752C419.902 155.056 419.83 154.464 419.686 153.976C419.55 153.488 419.354 153.116 419.098 152.86C418.85 152.596 418.546 152.464 418.186 152.464C417.834 152.464 417.53 152.596 417.274 152.86C417.018 153.116 416.818 153.488 416.674 153.976C416.538 154.464 416.47 155.056 416.47 155.752C416.47 156.432 416.538 157.016 416.674 157.504C416.818 157.992 417.018 158.368 417.274 158.632C417.53 158.888 417.834 159.016 418.186 159.016ZM423.989 160C423.989 159.128 424.105 158.268 424.337 157.42C424.577 156.564 424.921 155.736 425.369 154.936C425.817 154.136 426.349 153.38 426.965 152.668H422.477V151.48H428.285V152.584C427.765 153.176 427.317 153.764 426.941 154.348C426.565 154.924 426.257 155.508 426.017 156.1C425.777 156.692 425.601 157.312 425.489 157.96C425.377 158.6 425.321 159.28 425.321 160H423.989ZM431.761 160V158.416H433.393V160H431.761ZM436.748 160C436.748 159.368 436.84 158.804 437.024 158.308C437.208 157.812 437.532 157.348 437.996 156.916C438.468 156.476 439.12 156.036 439.952 155.596C440.312 155.412 440.604 155.236 440.828 155.068C441.052 154.9 441.216 154.72 441.32 154.528C441.424 154.336 441.476 154.104 441.476 153.832C441.476 153.552 441.42 153.312 441.308 153.112C441.196 152.912 441.028 152.756 440.804 152.644C440.58 152.524 440.3 152.464 439.964 152.464C439.42 152.464 438.992 152.608 438.68 152.896C438.376 153.184 438.184 153.596 438.104 154.132L436.796 154.048C436.884 153.208 437.2 152.54 437.744 152.044C438.288 151.54 439.028 151.288 439.964 151.288C440.572 151.288 441.084 151.392 441.5 151.6C441.924 151.808 442.244 152.1 442.46 152.476C442.676 152.852 442.784 153.288 442.784 153.784C442.784 154.224 442.712 154.604 442.568 154.924C442.424 155.244 442.184 155.54 441.848 155.812C441.512 156.084 441.052 156.376 440.468 156.688C439.98 156.952 439.572 157.212 439.244 157.468C438.924 157.716 438.68 157.956 438.512 158.188C438.352 158.412 438.264 158.62 438.248 158.812H442.796V160H436.748ZM444.855 158.728L448.119 152.692L449.079 152.752L445.815 158.788L444.855 158.728ZM446.967 160.192C446.343 160.192 445.803 160.012 445.347 159.652C444.891 159.292 444.543 158.78 444.303 158.116C444.063 157.452 443.943 156.664 443.943 155.752C443.943 154.832 444.063 154.04 444.303 153.376C444.543 152.712 444.891 152.2 445.347 151.84C445.803 151.472 446.343 151.288 446.967 151.288C447.599 151.288 448.139 151.472 448.587 151.84C449.043 152.2 449.391 152.712 449.631 153.376C449.871 154.04 449.991 154.832 449.991 155.752C449.991 156.664 449.871 157.452 449.631 158.116C449.391 158.78 449.043 159.292 448.587 159.652C448.139 160.012 447.599 160.192 446.967 160.192ZM446.967 159.016C447.327 159.016 447.631 158.888 447.879 158.632C448.135 158.368 448.331 157.992 448.467 157.504C448.611 157.016 448.683 156.432 448.683 155.752C448.683 155.056 448.611 154.464 448.467 153.976C448.331 153.488 448.135 153.116 447.879 152.86C447.631 152.596 447.327 152.464 446.967 152.464C446.615 152.464 446.311 152.596 446.055 152.86C445.799 153.116 445.599 153.488 445.455 153.976C445.319 154.464 445.251 155.056 445.251 155.752C445.251 156.432 445.319 157.016 445.455 157.504C445.599 157.992 445.799 158.368 446.055 158.632C446.311 158.888 446.615 159.016 446.967 159.016ZM451.139 160C451.139 159.368 451.231 158.804 451.415 158.308C451.599 157.812 451.923 157.348 452.387 156.916C452.859 156.476 453.511 156.036 454.343 155.596C454.703 155.412 454.995 155.236 455.219 155.068C455.443 154.9 455.607 154.72 455.711 154.528C455.815 154.336 455.867 154.104 455.867 153.832C455.867 153.552 455.811 153.312 455.699 153.112C455.587 152.912 455.419 152.756 455.195 152.644C454.971 152.524 454.691 152.464 454.355 152.464C453.811 152.464 453.383 152.608 453.071 152.896C452.767 153.184 452.575 153.596 452.495 154.132L451.187 154.048C451.275 153.208 451.591 152.54 452.135 152.044C452.679 151.54 453.419 151.288 454.355 151.288C454.963 151.288 455.475 151.392 455.891 151.6C456.315 151.808 456.635 152.1 456.851 152.476C457.067 152.852 457.174 153.288 457.174 153.784C457.174 154.224 457.103 154.604 456.959 154.924C456.815 155.244 456.575 155.54 456.239 155.812C455.903 156.084 455.443 156.376 454.859 156.688C454.371 156.952 453.963 157.212 453.635 157.468C453.315 157.716 453.071 157.956 452.903 158.188C452.743 158.412 452.655 158.62 452.639 158.812H457.187V160H451.139ZM461.334 160.192C460.766 160.192 460.27 160.092 459.846 159.892C459.43 159.684 459.098 159.4 458.85 159.04C458.61 158.672 458.47 158.252 458.43 157.78L459.738 157.696C459.794 158.136 459.962 158.468 460.242 158.692C460.522 158.908 460.886 159.016 461.334 159.016C461.838 159.016 462.238 158.864 462.534 158.56C462.83 158.248 462.978 157.808 462.978 157.24C462.978 156.872 462.91 156.552 462.774 156.28C462.646 156.008 462.462 155.804 462.222 155.668C461.982 155.524 461.694 155.452 461.358 155.452C461.046 155.452 460.75 155.532 460.47 155.692C460.198 155.844 460.006 156.056 459.894 156.328L458.562 156.304L459.114 151.48H463.806V152.668H460.206L459.858 155.608L459.606 155.428C459.734 155.188 459.898 154.988 460.098 154.828C460.306 154.668 460.534 154.548 460.782 154.468C461.038 154.38 461.294 154.336 461.55 154.336C462.102 154.336 462.582 154.46 462.99 154.708C463.406 154.956 463.726 155.3 463.95 155.74C464.174 156.18 464.286 156.684 464.286 157.252C464.286 157.82 464.162 158.328 463.914 158.776C463.666 159.224 463.318 159.572 462.87 159.82C462.43 160.068 461.918 160.192 461.334 160.192Z" fill="#8A8A8A"/>
<defs>
<filter id="filter0_d_4_56" x="17.77" y="51.836" width="60.1506" height="20.388" filterUnits="userSpaceOnUse" color-interpolation-filters="sRGB">
<feFlood flood-opacity="0" result="BackgroundImageFix"/>
<feColorMatrix in="SourceAlpha" type="matrix" values="0 0 0 0 0 0 0 0 0 0 0 0 0 0 0 0 0 0 127 0" result="hardAlpha"/>
<feOffset dx="4" dy="6"/>
<feGaussianBlur stdDeviation="2"/>
<feComposite in2="hardAlpha" operator="out"/>
<feColorMatrix type="matrix" values="0 0 0 0 0 0 0 0 0 0 0 0 0 0 0 0 0 0 0.1 0"/>
<feBlend mode="normal" in2="BackgroundImageFix" result="effect1_dropShadow_4_56"/>
<feBlend mode="normal" in="SourceGraphic" in2="effect1_dropShadow_4_56" result="shape"/>
</filter>
<clipPath id="clip0_4_56">
<rect width="464" height="24" fill="white" transform="translate(9 9)"/>
</clipPath>
<clipPath id="clip1_4_56">
<rect width="16" height="16" fill="white" transform="translate(17 129)"/>
</clipPath>
<clipPath id="clip2_4_56">
<rect width="253" height="38" fill="white" transform="translate(43 129)"/>
</clipPath>
<clipPath id="clip3_4_56">
<rect width="253" height="18" fill="white" transform="translate(43 149)"/>
</clipPath>
</defs>
</svg>
