<svg xmlns="http://www.w3.org/2000/svg" width="480" height="258" viewBox="0 0 480 258">
  <!-- Background -->
  <rect width="480" height="258" rx="16" fill="#0E0E0E"/>

  <!-- Header -->
  <text x="24" y="36"
        fill="#FFFFFF"
        font-size="18"
        font-weight="600"
        font-family="Inter, system-ui, sans-serif">
    Meetings
  </text>

  <!-- Header action icons -->
  <rect x="384" y="20" width="24" height="24" rx="6" fill="#1F1F1F"/>
  <rect x="416" y="20" width="24" height="24" rx="6" fill="#1F1F1F"/>
  <rect x="448" y="20" width="24" height="24" rx="6" fill="#1F1F1F"/>

  <!-- Day label -->
  <text x="24" y="64"
        fill="#9A9A9A"
        font-size="12"
        font-family="Inter, system-ui, sans-serif">
    Sunday, December 28
  </text>

  <!-- Highlighted meeting -->
  <rect x="16" y="72" width="448" height="56" rx="12" fill="#2A2414"/>
  <rect x="16" y="72" width="4" height="56" rx="2" fill="#F5C76B"/>

  <text x="32" y="96"
        fill="#FFFFFF"
        font-size="14"
        font-weight="600"
        font-family="Inter, system-ui, sans-serif">
    Gym Session
  </text>

  <text x="32" y="114"
        fill="#E0C27A"
        font-size="12"
        font-family="Inter, system-ui, sans-serif">
    13:30 – 14:30
  </text>

  <!-- Day label -->
  <text x="24" y="148"
        fill="#9A9A9A"
        font-size="12"
        font-family="Inter, system-ui, sans-serif">
    Monday, January 5
  </text>

  <!-- Meeting 1 -->
  <rect x="16" y="156" width="448" height="48" rx="12" fill="#151515"/>
  <rect x="16" y="156" width="4" height="48" rx="2" fill="#6F6F6F"/>

  <text x="32" y="176"
        fill="#FFFFFF"
        font-size="14"
        font-weight="600"
        font-family="Inter, system-ui, sans-serif">
    Meeting with John
  </text>

  <text x="32" y="194"
        fill="#9A9A9A"
        font-size="12"
        font-family="Inter, system-ui, sans-serif">
    08:00 – 09:30 · 5SR 103
  </text>

  <!-- Meeting 2 -->
  <rect x="16" y="208" width="448" height="48" rx="12" fill="#151515"/>
  <rect x="16" y="208" width="4" height="48" rx="2" fill="#6F6F6F"/>

  <text x="32" y="228"
        fill="#FFFFFF"
        font-size="14"
        font-weight="600"
        font-family="Inter, system-ui, sans-serif">
    Team meeting
  </text>

  <text x="32" y="246"
        fill="#9A9A9A"
        font-size="12"
        font-family="Inter, system-ui, sans-serif">
    10:00 – 11:30 · 5SR 103
  </text>
</svg>
