<svg xmlns="http://www.w3.org/2000/svg" width="480" height="258" viewBox="0 0 480 258">
  <!-- Background -->
  <rect x="0" y="0" width="480" height="258" rx="16" fill="#0E0E0E"/>

  <!-- Header -->
  <text x="24" y="36"
        fill="#FFFFFF"
        font-size="18"
        font-weight="600"
        font-family="Inter, system-ui, sans-serif">
    Todos
  </text>

  <!-- Edit icon placeholder -->
  <rect x="440" y="20" width="24" height="24" rx="6" fill="#1F1F1F"/>

  <!-- Todo 1 (checked) -->
  <rect x="16" y="56" width="448" height="40" rx="10" fill="#151515"/>

  <!-- Checkbox checked -->
  <rect x="32" y="68" width="16" height="16" rx="4" fill="#3CE37C"/>
  <path d="M36 76l3 3 5-6"
        fill="none"
        stroke="#0E0E0E"
        stroke-width="2"
        stroke-linecap="round"
        stroke-linejoin="round"/>

  <!-- Text -->
  <text x="64" y="84"
        fill="#9A9A9A"
        font-size="14"
        text-decoration="line-through"
        font-family="Inter, system-ui, sans-serif">
    Buy groceries
  </text>

  <!-- Todo 2 -->
  <rect x="16" y="104" width="448" height="40" rx="10" fill="#151515"/>

  <!-- Checkbox unchecked -->
  <rect x="32" y="116" width="16" height="16" rx="4"
        fill="none" stroke="#6F6F6F" stroke-width="1.5"/>

  <text x="64" y="132"
        fill="#FFFFFF"
        font-size="14"
        font-family="Inter, system-ui, sans-serif">
    Clean the apartment
  </text>

  <!-- Todo 3 -->
  <rect x="16" y="152" width="448" height="40" rx="10" fill="#151515"/>

  <rect x="32" y="164" width="16" height="16" rx="4"
        fill="none" stroke="#6F6F6F" stroke-width="1.5"/>

  <text x="64" y="180"
        fill="#FFFFFF"
        font-size="14"
        font-family="Inter, system-ui, sans-serif">
    Prepare weekly planning
  </text>

  <!-- Input -->
  <rect x="16" y="208" width="448" height="40" rx="10" fill="#0E0E0E" stroke="#2A2A2A"/>

  <text x="32" y="234"
        fill="#6F6F6F"
        font-size="14"
        font-family="Inter, system-ui, sans-serif">
    Type your todo…
  </text>

  <!-- Submit icon placeholder -->
  <circle cx="448" cy="228" r="10" fill="#1F1F1F"/>
</svg>
